<svg width="70" height="36" viewBox="0 0 70 36" fill="none" xmlns="http://www.w3.org/2000/svg">
<path d="M11.6667 20.9167C14.875 20.9167 17.5 18.2917 17.5 15.0833C17.5 11.875 14.875 9.25 11.6667 9.25C8.45833 9.25 5.83333 11.875 5.83333 15.0833C5.83333 18.2917 8.45833 20.9167 11.6667 20.9167ZM14.9625 24.125C13.8833 23.95 12.8042 23.8333 11.6667 23.8333C8.77917 23.8333 6.0375 24.4458 3.55833 25.525C1.4 26.4583 0 28.5583 0 30.9208V35.5H13.125V30.8042C13.125 28.3833 13.7958 26.1083 14.9625 24.125ZM58.3333 20.9167C61.5417 20.9167 64.1667 18.2917 64.1667 15.0833C64.1667 11.875 61.5417 9.25 58.3333 9.25C55.125 9.25 52.5 11.875 52.5 15.0833C52.5 18.2917 55.125 20.9167 58.3333 20.9167ZM70 30.9208C70 28.5583 68.6 26.4583 66.4417 25.525C63.9625 24.4458 61.2208 23.8333 58.3333 23.8333C57.1958 23.8333 56.1167 23.95 55.0375 24.125C56.2042 26.1083 56.875 28.3833 56.875 30.8042V35.5H70V30.9208ZM47.3667 22.8125C43.9542 21.2958 39.7542 20.1875 35 20.1875C30.2458 20.1875 26.0458 21.325 22.6333 22.8125C19.4833 24.2125 17.5 27.3625 17.5 30.8042V35.5H52.5V30.8042C52.5 27.3625 50.5167 24.2125 47.3667 22.8125ZM23.5375 29.6667C23.8 28.9958 23.9167 28.5292 26.1917 27.6542C29.0208 26.5458 31.9958 26.0208 35 26.0208C38.0042 26.0208 40.9792 26.5458 43.8083 27.6542C46.0542 28.5292 46.1708 28.9958 46.4625 29.6667H23.5375ZM35 6.33333C36.6042 6.33333 37.9167 7.64583 37.9167 9.25C37.9167 10.8542 36.6042 12.1667 35 12.1667C33.3958 12.1667 32.0833 10.8542 32.0833 9.25C32.0833 7.64583 33.3958 6.33333 35 6.33333ZM35 0.5C30.1583 0.5 26.25 4.40833 26.25 9.25C26.25 14.0917 30.1583 18 35 18C39.8417 18 43.75 14.0917 43.75 9.25C43.75 4.40833 39.8417 0.5 35 0.5Z" fill="#00F0AF"/>
</svg>
