<svg width="60" height="60" viewBox="0 0 60 60" fill="none" xmlns="http://www.w3.org/2000/svg">
<path d="M38.75 6.66668V27.0833H10.0792L8.35837 28.8042L6.66671 30.4958V6.66668H38.75ZM41.6667 0.833344H3.75004C2.14587 0.833344 0.833374 2.14584 0.833374 3.75001V44.5833L12.5 32.9167H41.6667C43.2709 32.9167 44.5834 31.6042 44.5834 30V3.75001C44.5834 2.14584 43.2709 0.833344 41.6667 0.833344ZM56.25 12.5H50.4167V38.75H12.5V44.5833C12.5 46.1875 13.8125 47.5 15.4167 47.5H47.5L59.1667 59.1667V15.4167C59.1667 13.8125 57.8542 12.5 56.25 12.5Z" fill="#006E97"/>
</svg>
