<svg width="70" height="70" viewBox="0 0 70 70" fill="none" xmlns="http://www.w3.org/2000/svg">
<path d="M8.74996 17.5L32.0833 32.0833L55.4166 17.5V26.25H61.25V11.6666C61.25 8.45831 58.625 5.83331 55.4166 5.83331H8.74996C5.54163 5.83331 2.94579 8.45831 2.94579 11.6666L2.91663 46.6666C2.91663 49.875 5.54163 52.5 8.74996 52.5H37.9166V46.6666H8.74996V17.5ZM55.4166 11.6666L32.0833 26.25L8.74996 11.6666H55.4166Z" fill="#6C63FF"/>
<path d="M61.25 40.8333V52.5C61.25 55.7083 58.625 58.3333 55.4167 58.3333C52.2083 58.3333 49.5833 55.7083 49.5833 52.5V39.375C49.5833 38.5583 50.225 37.9166 51.0417 37.9166C51.8583 37.9166 52.5 38.5583 52.5 39.375V52.5H58.3333V39.375C58.3333 35.35 55.0667 32.0833 51.0417 32.0833C47.0167 32.0833 43.75 35.35 43.75 39.375V52.5C43.75 58.9458 48.9708 64.1666 55.4167 64.1666C61.8625 64.1666 67.0833 58.9458 67.0833 52.5V40.8333H61.25Z" fill="#6C63FF"/>
</svg>
