<svg width="29" height="29" viewBox="0 0 29 29" fill="none" xmlns="http://www.w3.org/2000/svg">
<path d="M23.7329 0H4.74657C3.4877 0 2.28039 0.500084 1.39024 1.39024C0.500082 2.2804 0 3.48771 0 4.74658V23.7329C0 24.9917 0.500082 26.1991 1.39024 27.0892C2.28039 27.9794 3.4877 28.4795 4.74657 28.4795H23.7329C24.9918 28.4795 26.1991 27.9794 27.0892 27.0892C27.9794 26.1991 28.4795 24.9917 28.4795 23.7329V4.74658C28.4795 3.48771 27.9794 2.2804 27.0892 1.39024C26.1991 0.500084 24.9918 0 23.7329 0ZM26.1062 23.7329C26.1062 24.3623 25.8561 24.966 25.4111 25.411C24.966 25.8561 24.3623 26.1062 23.7329 26.1062H4.74657C4.11714 26.1062 3.51348 25.8561 3.06841 25.411C2.62333 24.966 2.37329 24.3623 2.37329 23.7329V4.74658C2.37329 4.11714 2.62333 3.51349 3.06841 3.06841C3.51348 2.62333 4.11714 2.37329 4.74657 2.37329H23.7329C24.3623 2.37329 24.966 2.62333 25.4111 3.06841C25.8561 3.51349 26.1062 4.11714 26.1062 4.74658V23.7329Z" fill="#EFF2FA"/>
<path d="M14.2397 7.11963C12.8316 7.11963 11.455 7.5372 10.2842 8.31954C9.1133 9.10188 8.20073 10.2139 7.66184 11.5148C7.12296 12.8158 6.98196 14.2474 7.25668 15.6285C7.5314 17.0096 8.2095 18.2783 9.20523 19.274C10.201 20.2697 11.4696 20.9478 12.8507 21.2225C14.2318 21.4973 15.6634 21.3563 16.9644 20.8174C18.2654 20.2785 19.3774 19.3659 20.1597 18.1951C20.942 17.0242 21.3596 15.6477 21.3596 14.2395C21.3596 12.3512 20.6095 10.5402 19.2743 9.20499C17.939 7.86976 16.1281 7.11963 14.2397 7.11963ZM14.2397 18.9861C13.301 18.9861 12.3833 18.7077 11.6027 18.1861C10.8221 17.6646 10.2137 16.9232 9.85449 16.0559C9.49519 15.1886 9.40122 14.2342 9.58439 13.3135C9.76749 12.3927 10.2196 11.547 10.8834 10.8832C11.5472 10.2193 12.393 9.76727 13.3137 9.58412C14.2345 9.40097 15.1889 9.49497 16.0562 9.85423C16.9235 10.2135 17.6648 10.8219 18.1864 11.6024C18.7079 12.383 18.9863 13.3007 18.9863 14.2395C18.9863 15.4984 18.4862 16.7057 17.5961 17.5958C16.7059 18.486 15.4986 18.9861 14.2397 18.9861Z" fill="#EFF2FA"/>
<path d="M21.9529 8.30651C22.936 8.30651 23.7329 7.5096 23.7329 6.52655C23.7329 5.5435 22.936 4.74658 21.9529 4.74658C20.9699 4.74658 20.173 5.5435 20.173 6.52655C20.173 7.5096 20.9699 8.30651 21.9529 8.30651Z" fill="#EFF2FA"/>
</svg>
