<svg width="35" height="35" viewBox="0 0 35 35" fill="none" xmlns="http://www.w3.org/2000/svg">
<path d="M17.5 35C27.165 35 35 27.165 35 17.5C35 7.83502 27.165 0 17.5 0C7.83502 0 0 7.83502 0 17.5C0 27.165 7.83502 35 17.5 35Z" fill="url(#paint0_linear)"/>
<path d="M17.5 32.8125C25.9569 32.8125 32.8125 25.9569 32.8125 17.5C32.8125 9.04314 25.9569 2.1875 17.5 2.1875C9.04314 2.1875 2.1875 9.04314 2.1875 17.5C2.1875 25.9569 9.04314 32.8125 17.5 32.8125Z" fill="white"/>
<path d="M23.8601 28.0327L23.9913 19.9225C23.9913 19.9225 23.5648 18.2163 21.9515 18.2819C20.3382 18.3475 19.7968 18.5772 19.0366 19.4358L18.8944 27.9616L14.7546 27.896L14.9679 15.0718L19.1077 15.1374L19.0749 17.0405C19.0749 17.0405 20.4859 14.4155 23.2531 14.6671C25.8179 14.8749 27.6937 16.4772 28.0491 19.8351H28.1312L27.9944 28.1093L23.8601 28.0327ZM10.0296 13.3218C9.53842 13.3141 9.06052 13.1609 8.65642 12.8816C8.25232 12.6022 7.94016 12.2092 7.75947 11.7524C7.57879 11.2956 7.5377 10.7955 7.64138 10.3153C7.74506 9.83508 7.98886 9.39641 8.34193 9.05483C8.695 8.71325 9.14144 8.48412 9.6248 8.39637C10.1082 8.30863 10.6067 8.36624 11.0573 8.56193C11.5079 8.75762 11.8903 9.08258 12.1561 9.4957C12.422 9.90881 12.5593 10.3915 12.5507 10.8827C12.5378 11.5398 12.2654 12.1651 11.793 12.622C11.3207 13.079 10.6868 13.3305 10.0296 13.3218V13.3218ZM11.8616 27.8358L7.72179 27.7702L7.93508 14.946L12.0749 15.0116L11.8616 27.8358Z" fill="url(#paint1_linear)"/>
<path d="M24.3303 26.6162L24.4615 18.5061C24.4615 18.5061 24.035 16.7998 22.4217 16.8654C20.8084 16.9311 20.267 17.1607 19.5068 18.0193L19.3646 26.5451L15.2248 26.4795L15.4381 13.6553L19.5779 13.7209L19.5451 15.624C19.5451 15.624 20.9561 12.999 23.7233 13.2506C26.2881 13.4584 28.1639 15.0607 28.5194 18.4185H28.6014L28.4647 26.6928L24.3303 26.6162ZM10.4998 11.9053C10.0086 11.8976 9.53073 11.7444 9.12663 11.4651C8.72253 11.1857 8.4104 10.7928 8.22971 10.3359C8.04902 9.87912 8.00791 9.37896 8.11158 8.89876C8.21526 8.41857 8.45907 7.97993 8.81213 7.63835C9.1652 7.29677 9.61168 7.0676 10.095 6.97986C10.5784 6.89212 11.0769 6.94976 11.5275 7.14545C11.9781 7.34115 12.3605 7.6661 12.6264 8.07922C12.8922 8.49233 13.0295 8.97502 13.0209 9.4662C13.008 10.1233 12.7356 10.7486 12.2632 11.2056C11.7909 11.6625 11.157 11.9141 10.4998 11.9053V11.9053ZM12.3318 26.4193L8.19199 26.3537L8.40528 13.5295L12.5451 13.5951L12.3318 26.4193Z" fill="black"/>
<defs>
<linearGradient id="paint0_linear" x1="19810" y1="24827.9" x2="19810" y2="22587.9" gradientUnits="userSpaceOnUse">
<stop stop-color="#808080" stop-opacity="0.25"/>
<stop offset="0.54" stop-color="#808080" stop-opacity="0.12"/>
<stop offset="1" stop-color="#808080" stop-opacity="0.1"/>
</linearGradient>
<linearGradient id="paint1_linear" x1="18415.6" y1="9625.13" x2="18188" y2="8793.71" gradientUnits="userSpaceOnUse">
<stop stop-color="#808080" stop-opacity="0.25"/>
<stop offset="0.54" stop-color="#808080" stop-opacity="0.12"/>
<stop offset="1" stop-color="#808080" stop-opacity="0.1"/>
</linearGradient>
</defs>
</svg>
