<svg width="144" height="39" viewBox="0 0 144 39" fill="none" xmlns="http://www.w3.org/2000/svg">
<path d="M124.5 1H19.5C9.28273 1 1 9.28273 1 19.5C1 29.7173 9.28273 38 19.5 38H124.5C134.717 38 143 29.7173 143 19.5C143 9.28273 134.717 1 124.5 1Z" fill="black" fill-opacity="0.5" stroke="white"/>
<path d="M58.58 11.252H59.732V15.5H58.676V14.936C58.06 15.376 57.28 15.596 56.336 15.596C55.576 15.596 54.868 15.428 54.212 15.092C53.564 14.756 53.044 14.268 52.652 13.628C52.268 12.98 52.076 12.216 52.076 11.336C52.076 10.504 52.268 9.76 52.652 9.104C53.044 8.448 53.58 7.936 54.26 7.568C54.948 7.192 55.72 7.004 56.576 7.004C57.248 7.004 57.856 7.116 58.4 7.34C58.952 7.556 59.42 7.876 59.804 8.3L59.06 9.044C58.388 8.396 57.576 8.072 56.624 8.072C55.984 8.072 55.408 8.212 54.896 8.492C54.392 8.772 53.996 9.16 53.708 9.656C53.42 10.152 53.276 10.712 53.276 11.336C53.276 12 53.42 12.576 53.708 13.064C54.004 13.552 54.392 13.924 54.872 14.18C55.352 14.428 55.872 14.552 56.432 14.552C56.824 14.552 57.204 14.488 57.572 14.36C57.948 14.224 58.284 14.028 58.58 13.772V11.252ZM64.7295 14.564C65.4895 14.564 66.1015 14.308 66.5655 13.796L67.1895 14.54C66.9095 14.876 66.5535 15.132 66.1215 15.308C65.6975 15.484 65.2215 15.572 64.6935 15.572C64.0215 15.572 63.4255 15.436 62.9055 15.164C62.3855 14.884 61.9815 14.496 61.6935 14C61.4135 13.504 61.2735 12.944 61.2735 12.32C61.2735 11.704 61.4095 11.148 61.6815 10.652C61.9615 10.156 62.3415 9.772 62.8215 9.5C63.3095 9.22 63.8575 9.08 64.4655 9.08C65.0415 9.08 65.5655 9.212 66.0375 9.476C66.5095 9.732 66.8855 10.096 67.1655 10.568C67.4455 11.04 67.5895 11.584 67.5975 12.2L62.5455 13.184C62.7055 13.624 62.9735 13.964 63.3495 14.204C63.7335 14.444 64.1935 14.564 64.7295 14.564ZM64.4655 10.052C64.0655 10.052 63.7055 10.144 63.3855 10.328C63.0735 10.512 62.8295 10.772 62.6535 11.108C62.4775 11.436 62.3895 11.82 62.3895 12.26V12.38L66.4575 11.612C66.3535 11.148 66.1215 10.772 65.7615 10.484C65.4015 10.196 64.9695 10.052 64.4655 10.052ZM72.5572 15.128C72.3892 15.272 72.1812 15.384 71.9332 15.464C71.6852 15.536 71.4292 15.572 71.1652 15.572C70.5252 15.572 70.0292 15.4 69.6772 15.056C69.3252 14.712 69.1492 14.22 69.1492 13.58V7.748H70.3012V9.14H72.1252V10.088H70.3012V13.532C70.3012 13.876 70.3852 14.14 70.5532 14.324C70.7292 14.508 70.9772 14.6 71.2972 14.6C71.6492 14.6 71.9492 14.5 72.1972 14.3L72.5572 15.128ZM77.1662 9.14H78.3182V15.5H77.1662V9.14ZM77.7422 7.916C77.5182 7.916 77.3302 7.844 77.1782 7.7C77.0342 7.556 76.9622 7.38 76.9622 7.172C76.9622 6.964 77.0342 6.788 77.1782 6.644C77.3302 6.492 77.5182 6.416 77.7422 6.416C77.9662 6.416 78.1502 6.488 78.2942 6.632C78.4462 6.768 78.5222 6.94 78.5222 7.148C78.5222 7.364 78.4462 7.548 78.2942 7.7C78.1502 7.844 77.9662 7.916 77.7422 7.916ZM83.8658 15.128C83.6978 15.272 83.4898 15.384 83.2418 15.464C82.9938 15.536 82.7378 15.572 82.4738 15.572C81.8338 15.572 81.3378 15.4 80.9858 15.056C80.6338 14.712 80.4578 14.22 80.4578 13.58V7.748H81.6098V9.14H83.4338V10.088H81.6098V13.532C81.6098 13.876 81.6938 14.14 81.8618 14.324C82.0378 14.508 82.2858 14.6 82.6058 14.6C82.9578 14.6 83.2578 14.5 83.5058 14.3L83.8658 15.128ZM91.1988 15.572C90.5668 15.572 89.9988 15.432 89.4948 15.152C88.9908 14.872 88.5948 14.488 88.3068 14C88.0268 13.504 87.8868 12.944 87.8868 12.32C87.8868 11.696 88.0268 11.14 88.3068 10.652C88.5948 10.156 88.9908 9.772 89.4948 9.5C89.9988 9.22 90.5668 9.08 91.1988 9.08C91.8308 9.08 92.3948 9.22 92.8908 9.5C93.3948 9.772 93.7868 10.156 94.0668 10.652C94.3548 11.14 94.4988 11.696 94.4988 12.32C94.4988 12.944 94.3548 13.504 94.0668 14C93.7868 14.488 93.3948 14.872 92.8908 15.152C92.3948 15.432 91.8308 15.572 91.1988 15.572ZM91.1988 14.564C91.6068 14.564 91.9708 14.472 92.2908 14.288C92.6188 14.096 92.8748 13.832 93.0588 13.496C93.2428 13.152 93.3348 12.76 93.3348 12.32C93.3348 11.88 93.2428 11.492 93.0588 11.156C92.8748 10.812 92.6188 10.548 92.2908 10.364C91.9708 10.18 91.6068 10.088 91.1988 10.088C90.7908 10.088 90.4228 10.18 90.0948 10.364C89.7748 10.548 89.5188 10.812 89.3268 11.156C89.1428 11.492 89.0508 11.88 89.0508 12.32C89.0508 12.76 89.1428 13.152 89.3268 13.496C89.5188 13.832 89.7748 14.096 90.0948 14.288C90.4228 14.472 90.7908 14.564 91.1988 14.564ZM99.488 9.08C100.296 9.08 100.936 9.316 101.408 9.788C101.888 10.252 102.128 10.936 102.128 11.84V15.5H100.976V11.972C100.976 11.356 100.828 10.892 100.532 10.58C100.236 10.268 99.812 10.112 99.26 10.112C98.636 10.112 98.144 10.296 97.784 10.664C97.424 11.024 97.244 11.544 97.244 12.224V15.5H96.092V9.14H97.196V10.1C97.428 9.772 97.74 9.52 98.132 9.344C98.532 9.168 98.984 9.08 99.488 9.08ZM58.172 26.168H59.948V30.5H58.484V29.996C57.9 30.428 57.148 30.644 56.228 30.644C55.452 30.644 54.74 30.476 54.092 30.14C53.444 29.804 52.928 29.316 52.544 28.676C52.16 28.028 51.968 27.26 51.968 26.372C51.968 25.516 52.164 24.756 52.556 24.092C52.956 23.42 53.508 22.896 54.212 22.52C54.916 22.144 55.708 21.956 56.588 21.956C57.324 21.956 57.992 22.08 58.592 22.328C59.192 22.576 59.696 22.936 60.104 23.408L58.856 24.56C58.256 23.928 57.532 23.612 56.684 23.612C56.148 23.612 55.672 23.728 55.256 23.96C54.84 24.184 54.516 24.504 54.284 24.92C54.052 25.336 53.936 25.816 53.936 26.36C53.936 26.928 54.048 27.412 54.272 27.812C54.504 28.212 54.812 28.516 55.196 28.724C55.58 28.924 56 29.024 56.456 29.024C57.136 29.024 57.708 28.832 58.172 28.448V26.168ZM64.6938 30.596C64.0138 30.596 63.4018 30.456 62.8578 30.176C62.3218 29.888 61.9018 29.492 61.5978 28.988C61.2938 28.484 61.1418 27.912 61.1418 27.272C61.1418 26.632 61.2938 26.06 61.5978 25.556C61.9018 25.052 62.3218 24.66 62.8578 24.38C63.4018 24.092 64.0138 23.948 64.6938 23.948C65.3738 23.948 65.9818 24.092 66.5178 24.38C67.0538 24.66 67.4738 25.052 67.7778 25.556C68.0818 26.06 68.2338 26.632 68.2338 27.272C68.2338 27.912 68.0818 28.484 67.7778 28.988C67.4738 29.492 67.0538 29.888 66.5178 30.176C65.9818 30.456 65.3738 30.596 64.6938 30.596ZM64.6938 29.06C65.1738 29.06 65.5658 28.9 65.8698 28.58C66.1818 28.252 66.3378 27.816 66.3378 27.272C66.3378 26.728 66.1818 26.296 65.8698 25.976C65.5658 25.648 65.1738 25.484 64.6938 25.484C64.2138 25.484 63.8178 25.648 63.5058 25.976C63.1938 26.296 63.0378 26.728 63.0378 27.272C63.0378 27.816 63.1938 28.252 63.5058 28.58C63.8178 28.9 64.2138 29.06 64.6938 29.06ZM72.5571 30.596C71.8771 30.596 71.2651 30.456 70.7211 30.176C70.1851 29.888 69.7651 29.492 69.4611 28.988C69.1571 28.484 69.0051 27.912 69.0051 27.272C69.0051 26.632 69.1571 26.06 69.4611 25.556C69.7651 25.052 70.1851 24.66 70.7211 24.38C71.2651 24.092 71.8771 23.948 72.5571 23.948C73.2371 23.948 73.8451 24.092 74.3811 24.38C74.9171 24.66 75.3371 25.052 75.6411 25.556C75.9451 26.06 76.0971 26.632 76.0971 27.272C76.0971 27.912 75.9451 28.484 75.6411 28.988C75.3371 29.492 74.9171 29.888 74.3811 30.176C73.8451 30.456 73.2371 30.596 72.5571 30.596ZM72.5571 29.06C73.0371 29.06 73.4291 28.9 73.7331 28.58C74.0451 28.252 74.2011 27.816 74.2011 27.272C74.2011 26.728 74.0451 26.296 73.7331 25.976C73.4291 25.648 73.0371 25.484 72.5571 25.484C72.0771 25.484 71.6811 25.648 71.3691 25.976C71.0571 26.296 70.9011 26.728 70.9011 27.272C70.9011 27.816 71.0571 28.252 71.3691 28.58C71.6811 28.9 72.0771 29.06 72.5571 29.06ZM84.0084 24.044V29.42C84.0084 30.604 83.7004 31.484 83.0844 32.06C82.4684 32.636 81.5684 32.924 80.3844 32.924C79.7604 32.924 79.1684 32.848 78.6084 32.696C78.0484 32.544 77.5844 32.324 77.2164 32.036L77.9604 30.692C78.2324 30.916 78.5764 31.092 78.9924 31.22C79.4084 31.356 79.8244 31.424 80.2404 31.424C80.8884 31.424 81.3644 31.276 81.6684 30.98C81.9804 30.692 82.1364 30.252 82.1364 29.66V29.384C81.6484 29.92 80.9684 30.188 80.0964 30.188C79.5044 30.188 78.9604 30.06 78.4644 29.804C77.9764 29.54 77.5884 29.172 77.3004 28.7C77.0124 28.228 76.8684 27.684 76.8684 27.068C76.8684 26.452 77.0124 25.908 77.3004 25.436C77.5884 24.964 77.9764 24.6 78.4644 24.344C78.9604 24.08 79.5044 23.948 80.0964 23.948C81.0324 23.948 81.7444 24.256 82.2324 24.872V24.044H84.0084ZM80.4684 28.652C80.9644 28.652 81.3684 28.508 81.6804 28.22C82.0004 27.924 82.1604 27.54 82.1604 27.068C82.1604 26.596 82.0004 26.216 81.6804 25.928C81.3684 25.632 80.9644 25.484 80.4684 25.484C79.9724 25.484 79.5644 25.632 79.2444 25.928C78.9244 26.216 78.7644 26.596 78.7644 27.068C78.7644 27.54 78.9244 27.924 79.2444 28.22C79.5644 28.508 79.9724 28.652 80.4684 28.652ZM88.0667 30.596C87.3387 30.596 86.7707 30.404 86.3627 30.02C85.9547 29.628 85.7507 29.076 85.7507 28.364V21.596H87.6227V28.256C87.6227 28.528 87.6907 28.74 87.8267 28.892C87.9707 29.036 88.1707 29.108 88.4267 29.108C88.5227 29.108 88.6187 29.096 88.7147 29.072C88.8187 29.048 88.8987 29.02 88.9547 28.988L89.0387 30.44C88.7267 30.544 88.4027 30.596 88.0667 30.596ZM93.0926 29.096C93.4286 29.096 93.7246 29.048 93.9806 28.952C94.2446 28.848 94.4886 28.688 94.7126 28.472L95.7086 29.552C95.1006 30.248 94.2126 30.596 93.0446 30.596C92.3166 30.596 91.6726 30.456 91.1126 30.176C90.5526 29.888 90.1206 29.492 89.8166 28.988C89.5126 28.484 89.3606 27.912 89.3606 27.272C89.3606 26.64 89.5086 26.072 89.8046 25.568C90.1086 25.056 90.5206 24.66 91.0406 24.38C91.5686 24.092 92.1606 23.948 92.8166 23.948C93.4326 23.948 93.9926 24.08 94.4966 24.344C95.0006 24.6 95.4006 24.976 95.6966 25.472C96.0006 25.96 96.1526 26.54 96.1526 27.212L91.3766 28.136C91.5126 28.456 91.7246 28.696 92.0126 28.856C92.3086 29.016 92.6686 29.096 93.0926 29.096ZM92.8166 25.364C92.3446 25.364 91.9606 25.516 91.6646 25.82C91.3686 26.124 91.2126 26.544 91.1966 27.08L94.3406 26.468C94.2526 26.132 94.0726 25.864 93.8006 25.664C93.5286 25.464 93.2006 25.364 92.8166 25.364ZM104.577 22.1C105.321 22.1 105.965 22.224 106.509 22.472C107.061 22.72 107.485 23.072 107.781 23.528C108.077 23.984 108.225 24.524 108.225 25.148C108.225 25.764 108.077 26.304 107.781 26.768C107.485 27.224 107.061 27.576 106.509 27.824C105.965 28.064 105.321 28.184 104.577 28.184H102.885V30.5H100.941V22.1H104.577ZM104.469 26.6C105.053 26.6 105.497 26.476 105.801 26.228C106.105 25.972 106.257 25.612 106.257 25.148C106.257 24.676 106.105 24.316 105.801 24.068C105.497 23.812 105.053 23.684 104.469 23.684H102.885V26.6H104.469ZM111.914 30.596C111.186 30.596 110.618 30.404 110.21 30.02C109.802 29.628 109.598 29.076 109.598 28.364V21.596H111.47V28.256C111.47 28.528 111.538 28.74 111.674 28.892C111.818 29.036 112.018 29.108 112.274 29.108C112.37 29.108 112.466 29.096 112.562 29.072C112.666 29.048 112.746 29.02 112.802 28.988L112.886 30.44C112.574 30.544 112.25 30.596 111.914 30.596ZM120.24 24.044V30.5H118.452V29.756C117.988 30.316 117.316 30.596 116.436 30.596C115.828 30.596 115.276 30.46 114.78 30.188C114.292 29.916 113.908 29.528 113.628 29.024C113.348 28.52 113.208 27.936 113.208 27.272C113.208 26.608 113.348 26.024 113.628 25.52C113.908 25.016 114.292 24.628 114.78 24.356C115.276 24.084 115.828 23.948 116.436 23.948C117.26 23.948 117.904 24.208 118.368 24.728V24.044H120.24ZM116.76 29.06C117.232 29.06 117.624 28.9 117.936 28.58C118.248 28.252 118.404 27.816 118.404 27.272C118.404 26.728 118.248 26.296 117.936 25.976C117.624 25.648 117.232 25.484 116.76 25.484C116.28 25.484 115.884 25.648 115.572 25.976C115.26 26.296 115.104 26.728 115.104 27.272C115.104 27.816 115.26 28.252 115.572 28.58C115.884 28.9 116.28 29.06 116.76 29.06ZM128.477 24.044V29.42C128.477 30.604 128.177 31.484 127.577 32.06C126.977 32.636 126.105 32.924 124.961 32.924C124.353 32.924 123.777 32.848 123.233 32.696C122.697 32.544 122.245 32.324 121.877 32.036L122.621 30.692C122.893 30.916 123.225 31.092 123.617 31.22C124.009 31.348 124.405 31.412 124.805 31.412C125.429 31.412 125.885 31.268 126.173 30.98C126.461 30.692 126.605 30.252 126.605 29.66V29.444C126.365 29.684 126.081 29.868 125.753 29.996C125.425 30.124 125.073 30.188 124.697 30.188C123.849 30.188 123.177 29.948 122.681 29.468C122.185 28.98 121.937 28.252 121.937 27.284V24.044H123.809V27.008C123.809 28.056 124.245 28.58 125.117 28.58C125.565 28.58 125.925 28.436 126.197 28.148C126.469 27.852 126.605 27.416 126.605 26.84V24.044H128.477Z" fill="#E5E5E5"/>
<path d="M21.0498 33.2891L32.1791 21.047L35.8892 25.128L21.0498 33.2891Z" fill="#E5E5E5"/>
<path d="M30.5001 19.2002L17.5002 33.5L17.5 4.90001L30.5001 19.2002Z" fill="#E5E5E5"/>
<path d="M38.1278 23.8968L33.858 19.2002L38.128 14.5032L46.6683 19.1998L38.1278 23.8968Z" fill="#E5E5E5"/>
<path d="M32.1791 17.3533L21.0497 5.11102L35.8894 13.272L32.1791 17.3533Z" fill="#E5E5E5"/>
</svg>
