<svg width="573" height="396" viewBox="0 0 573 396" fill="none" xmlns="http://www.w3.org/2000/svg">
<g clip-path="url(#clip0)">
<path d="M432.954 54.1466C432.341 56.1084 431.723 58.0702 430.928 59.9764C429.568 63.2892 427.851 66.4443 425.806 69.386C424.478 71.3221 423.051 73.1886 421.531 74.9781C419.626 77.218 417.504 79.473 416.83 82.3348C416.44 83.9882 416.572 85.7174 416.404 87.391C416.237 89.0646 415.695 90.8697 414.323 91.8809C413.345 92.6039 412.094 92.8214 410.893 93.0135C410.032 93.15 408.958 93.1905 408.507 92.4472C408.355 92.1423 408.276 91.8068 408.274 91.4663L408.066 88.9938C408.021 88.4629 407.833 87.7753 407.296 87.75C406.759 87.7247 406.491 88.4376 406.035 88.7612C405.427 89.186 404.515 88.7612 404.181 88.1191C403.904 87.4258 403.884 86.6565 404.125 85.95C404.495 84.5422 405.159 83.2286 406.074 82.0956C406.989 80.9626 408.134 80.036 409.434 79.377C410.336 79.012 411.201 78.5617 412.018 78.032C412.847 77.3125 413.534 76.4448 414.044 75.4736C418.745 67.7478 423.471 59.9815 426.784 51.573C427.441 50.0729 427.884 48.4885 428.101 46.8657C428.263 45.2073 428.005 43.5489 427.899 41.8854C427.703 38.9082 427.978 35.9188 428.714 33.027C428.877 32.2655 429.164 31.536 429.565 30.868C430.933 28.8 434.124 28.4916 436.15 29.9225C436.898 30.4945 437.517 31.2158 437.969 32.0403C438.42 32.8648 438.695 33.7743 438.775 34.7107C438.921 36.3843 437.954 38.1236 437.463 39.686C435.96 44.5129 434.457 49.3332 432.954 54.1466Z" fill="#A1616A"/>
<path opacity="0.05" d="M432.954 54.1466C432.341 56.1084 431.723 58.0702 430.928 59.9764C429.568 63.2892 427.851 66.4443 425.806 69.386C424.478 71.3221 423.051 73.1886 421.531 74.9781C419.626 77.218 417.504 79.473 416.83 82.3348C416.44 83.9882 416.572 85.7174 416.404 87.391C416.237 89.0646 415.695 90.8697 414.323 91.8809C413.345 92.6039 412.094 92.8214 410.893 93.0135C410.032 93.15 408.958 93.1905 408.507 92.4472C408.355 92.1423 408.276 91.8068 408.274 91.4663L408.066 88.9938C408.021 88.4629 407.833 87.7753 407.296 87.75C406.759 87.7247 406.491 88.4376 406.035 88.7612C405.427 89.186 404.515 88.7612 404.181 88.1191C403.904 87.4258 403.884 86.6565 404.125 85.95C404.495 84.5422 405.159 83.2286 406.074 82.0956C406.989 80.9626 408.134 80.036 409.434 79.377C410.336 79.012 411.201 78.5617 412.018 78.032C412.847 77.3125 413.534 76.4448 414.044 75.4736C418.745 67.7478 423.471 59.9815 426.784 51.573C427.441 50.0729 427.884 48.4885 428.101 46.8657C428.263 45.2073 428.005 43.5489 427.899 41.8854C427.703 38.9082 427.978 35.9188 428.714 33.027C428.877 32.2655 429.164 31.536 429.565 30.868C430.933 28.8 434.124 28.4916 436.15 29.9225C436.898 30.4945 437.517 31.2158 437.969 32.0403C438.42 32.8648 438.695 33.7743 438.775 34.7107C438.921 36.3843 437.954 38.1236 437.463 39.686C435.96 44.5129 434.457 49.3332 432.954 54.1466Z" fill="black"/>
<path d="M462.487 136.755C461.57 137.069 460.596 137.184 459.63 137.093C459.559 136.305 458.495 136.128 457.705 136.168C457.323 136.155 456.944 136.243 456.606 136.421C456.408 136.547 456.256 136.734 456.064 136.861C455.721 137.05 455.336 137.15 454.944 137.149L450.831 137.493C448.997 137.649 447.087 137.796 445.37 137.139C445.027 137.032 444.723 136.829 444.494 136.552C444.028 135.885 444.494 134.929 445.137 134.449C445.78 133.969 446.611 133.741 447.26 133.246C448.688 132.158 448.886 130.126 449.64 128.503C450.174 127.473 450.836 126.515 451.611 125.651C452.169 124.91 452.821 124.243 453.551 123.669C455.198 122.476 457.097 122.501 459.037 122.329C460.405 122.208 461.692 122.132 462.675 123.34C463.885 124.857 463.404 127.891 463.328 129.666C463.233 132.047 462.952 134.417 462.487 136.755Z" fill="#514E7F"/>
<path opacity="0.05" d="M462.487 136.755C461.57 137.069 460.596 137.184 459.63 137.093C459.559 136.305 458.495 136.128 457.705 136.168C457.323 136.155 456.944 136.243 456.606 136.421C456.408 136.547 456.256 136.734 456.064 136.861C455.721 137.05 455.336 137.15 454.944 137.149L450.831 137.493C448.997 137.649 447.087 137.796 445.37 137.139C445.027 137.032 444.723 136.829 444.494 136.552C444.028 135.885 444.494 134.929 445.137 134.449C445.78 133.969 446.611 133.741 447.26 133.246C448.688 132.158 448.886 130.126 449.64 128.503C450.174 127.473 450.836 126.515 451.611 125.651C452.169 124.91 452.821 124.243 453.551 123.669C455.198 122.476 457.097 122.501 459.037 122.329C460.405 122.208 461.692 122.132 462.675 123.34C463.885 124.857 463.404 127.891 463.328 129.666C463.233 132.047 462.952 134.417 462.487 136.755Z" fill="black"/>
<path d="M460.825 56.887C462.082 57.2915 462.629 58.8539 462.396 60.1584C462.163 61.4629 461.383 62.5752 460.739 63.7281C458.906 66.9994 458.115 70.741 456.575 74.1539C455.425 76.7073 453.87 79.0635 452.73 81.6219C451.591 84.1803 450.897 87.0674 451.581 89.7775C451.92 91.0972 452.594 92.3056 452.999 93.605C453.425 95.0134 453.704 96.4622 453.83 97.9281C454.387 102.907 454.488 107.927 454.129 112.925C454.126 113.534 453.998 114.136 453.754 114.694C453.495 115.2 453.05 115.706 453.247 116.211C453.333 116.419 453.516 116.57 453.612 116.772C453.875 117.339 453.348 117.94 452.867 118.345C452.952 118.497 453.068 118.631 453.206 118.738C453.345 118.845 453.503 118.923 453.673 118.967C453.327 119.187 453.061 119.512 452.914 119.894C452.767 120.277 452.747 120.696 452.857 121.09C453.288 121.151 453.313 121.808 453.045 122.147C452.776 122.486 452.351 122.703 452.158 123.093C452.045 123.41 452.057 123.758 452.193 124.067C452.328 124.375 452.577 124.62 452.888 124.751C453.52 124.997 454.211 125.049 454.873 124.903C456.008 124.75 457.13 124.508 458.227 124.18C458.589 124.088 458.932 123.932 459.24 123.72C459.79 123.185 460.118 122.463 460.157 121.697C460.408 119.639 460.484 117.564 460.385 115.493C460.202 105.462 460.385 95.4202 460.82 85.3938C460.998 81.3488 462.213 77.4303 463.774 73.709C464.642 71.7996 465.606 69.9349 466.661 68.1219C468.91 64.0112 470.891 59.4606 470.384 54.7685C470.329 54.2629 470.141 53.6612 469.645 53.5803C469.449 53.5593 469.251 53.5925 469.072 53.6764C468.031 54.1612 467.024 54.717 466.058 55.3399C464.465 56.2696 462.669 56.8005 460.825 56.887Z" fill="#464353"/>
<path opacity="0.05" d="M460.825 56.887C462.082 57.2915 462.629 58.8539 462.396 60.1584C462.163 61.4629 461.383 62.5752 460.739 63.7281C458.906 66.9994 458.115 70.741 456.575 74.1539C455.425 76.7073 453.87 79.0635 452.73 81.6219C451.591 84.1803 450.897 87.0674 451.581 89.7775C451.92 91.0972 452.594 92.3056 452.999 93.605C453.425 95.0134 453.704 96.4622 453.83 97.9281C454.387 102.907 454.488 107.927 454.129 112.925C454.126 113.534 453.998 114.136 453.754 114.694C453.495 115.2 453.05 115.706 453.247 116.211C453.333 116.419 453.516 116.57 453.612 116.772C453.875 117.339 453.348 117.94 452.867 118.345C452.952 118.497 453.068 118.631 453.206 118.738C453.345 118.845 453.503 118.923 453.673 118.967C453.327 119.187 453.061 119.512 452.914 119.894C452.767 120.277 452.747 120.696 452.857 121.09C453.288 121.151 453.313 121.808 453.045 122.147C452.776 122.486 452.351 122.703 452.158 123.093C452.045 123.41 452.057 123.758 452.193 124.067C452.328 124.375 452.577 124.62 452.888 124.751C453.52 124.997 454.211 125.049 454.873 124.903C456.008 124.75 457.13 124.508 458.227 124.18C458.589 124.088 458.932 123.932 459.24 123.72C459.79 123.185 460.118 122.463 460.157 121.697C460.408 119.639 460.484 117.564 460.385 115.493C460.202 105.462 460.385 95.4202 460.82 85.3938C460.998 81.3488 462.213 77.4303 463.774 73.709C464.642 71.7996 465.606 69.9349 466.661 68.1219C468.91 64.0112 470.891 59.4606 470.384 54.7685C470.329 54.2629 470.141 53.6612 469.645 53.5803C469.449 53.5593 469.251 53.5925 469.072 53.6764C468.031 54.1612 467.024 54.717 466.058 55.3399C464.465 56.2696 462.669 56.8005 460.825 56.887Z" fill="black"/>
<path d="M477.811 44.6966C478.464 44.273 479.22 44.0337 479.999 44.0039C480.901 44.0494 481.671 44.641 482.375 45.2073C483.209 45.8464 484.001 46.5389 484.746 47.2803C486.285 48.9223 487.357 50.9443 487.852 53.1378C488.347 55.3313 488.247 57.6169 487.562 59.759C486.817 61.9888 485.455 63.9556 484.107 65.882L481.372 69.8056C477.198 75.7871 473.024 81.7685 468.652 87.6084C468.651 87.752 468.604 87.8916 468.519 88.007C468.433 88.1224 468.313 88.2077 468.176 88.2506C468.014 88.291 467.821 88.286 467.725 88.4174C467.682 88.4999 467.663 88.5927 467.669 88.6854C467.679 89.1189 467.762 89.5478 467.912 89.9545C467.983 90.0861 468.002 90.2398 467.963 90.3843C467.821 90.7129 467.223 90.5309 467.031 90.8343C466.904 91.0365 467.061 91.2994 467.228 91.4713C467.396 91.6433 467.603 91.8354 467.573 92.073C467.543 92.3107 467.127 92.5786 467.142 92.8719C467.142 93.0438 467.294 93.1753 467.401 93.3118C467.55 93.5294 467.617 93.7921 467.592 94.0545C467.567 94.3168 467.451 94.5621 467.264 94.7477C466.975 97.5994 468.53 100.31 468.839 103.151C469.346 107.641 467.294 112.025 467.046 116.53C467.061 117.037 466.964 117.541 466.762 118.006C466.342 118.785 465.243 119.255 465.298 120.14C465.378 120.503 465.479 120.861 465.602 121.212C465.688 121.717 465.45 122.223 465.44 122.729C465.43 123.234 465.876 123.856 466.357 123.659C465.999 124.849 465.68 126.051 465.4 127.264L455.826 128.053C455.722 127.194 455.751 126.324 455.912 125.474C456.104 124.554 456.525 123.689 456.742 122.774C456.884 122.323 456.923 121.847 456.858 121.379C456.792 120.911 456.623 120.464 456.363 120.069C456.613 120.073 456.857 119.989 457.051 119.83C457.244 119.672 457.376 119.45 457.421 119.204C457.51 118.713 457.51 118.21 457.421 117.718C457.168 115.225 458.217 112.768 458.181 110.265C458.156 108.293 457.462 106.402 457.112 104.461C456.363 100.315 457.143 95.8197 455.294 92.0376C454.174 89.7522 452.624 87.2242 453.88 85.0146C454.498 83.9225 455.593 83.1742 456.307 82.1427C456.888 81.1692 457.325 80.1166 457.604 79.018C459.078 74.4674 461.464 70.2354 463.556 65.9124C464.124 64.8336 464.547 63.6842 464.812 62.4944C464.961 61.4429 465.013 60.3801 464.969 59.3191C464.973 57.4093 465.092 55.5014 465.324 53.6056C465.371 52.7759 465.608 51.9681 466.018 51.2444C466.432 50.6977 466.948 50.2359 467.537 49.8843C470.678 47.7051 474.437 46.4764 477.811 44.6966Z" fill="#464353"/>
<path d="M466.332 140.253C465.412 140.567 464.437 140.683 463.47 140.592C463.399 139.808 462.34 139.626 461.55 139.667C461.166 139.655 460.786 139.742 460.445 139.92C460.253 140.046 460.101 140.233 459.903 140.36C459.561 140.55 459.176 140.649 458.784 140.648L454.676 140.997C452.837 141.148 450.932 141.295 449.21 140.638C448.867 140.535 448.563 140.33 448.338 140.051C447.867 139.384 448.339 138.433 448.982 137.948C449.625 137.462 450.456 137.24 451.099 136.749C452.528 135.657 452.725 133.63 453.485 132.002C454.016 130.973 454.676 130.016 455.451 129.155C456.012 128.414 456.663 127.747 457.391 127.168C459.042 125.975 460.937 126 462.877 125.833C464.25 125.707 465.536 125.631 466.514 126.844C467.73 128.361 467.244 131.395 467.173 133.17C467.077 135.549 466.796 137.918 466.332 140.253Z" fill="#514E7F"/>
<path d="M423.902 28.1427C429.139 28.1427 433.385 23.905 433.385 18.6775C433.385 13.4501 429.139 9.21237 423.902 9.21237C418.664 9.21237 414.419 13.4501 414.419 18.6775C414.419 23.905 418.664 28.1427 423.902 28.1427Z" fill="#A1616A"/>
<path d="M432.843 21.4888C434.205 22.6568 436.156 22.7478 437.939 22.9298C441.752 23.3152 445.464 24.3858 448.896 26.0899C449.373 26.2906 449.804 26.5866 450.162 26.9596C450.471 27.3587 450.69 27.819 450.806 28.3096C451.129 29.3749 451.251 30.4912 451.165 31.6012C451.04 32.6792 450.73 33.7277 450.248 34.7006C448.93 37.4175 446.9 39.7274 444.372 41.3849C443.926 41.7162 443.421 41.9583 442.883 42.0978C441.637 42.3556 440.431 41.6377 439.2 41.3141C438.08 41.0219 436.899 41.0605 435.801 41.4253C434.788 41.7641 433.678 42.3961 432.675 41.9764C432.033 41.6162 431.534 41.0468 431.262 40.3635C430.293 38.5314 429.429 36.6457 428.674 34.7158C428.403 33.9655 428.09 33.2312 427.736 32.5163C426.637 30.4231 424.738 28.8101 423.79 26.6461C423.693 26.4801 423.634 26.2944 423.618 26.1028C423.603 25.9111 423.63 25.7184 423.699 25.5388C423.878 25.3063 424.121 25.1307 424.398 25.0332C425.8 24.2269 427.077 23.2202 428.187 22.045C428.81 21.4534 429.955 19.8354 430.852 19.6989C431.885 19.5169 432.164 20.9023 432.843 21.4888Z" fill="#A1616A"/>
<path d="M432.625 40.7225C433.724 41.2281 435.016 41.0107 436.211 40.763C439.281 40.1259 442.386 39.4736 445.228 38.1489C446.116 37.8098 446.885 37.2193 447.442 36.45C447.788 35.7925 447.999 35.072 448.06 34.3315L448.566 30.7922C448.749 29.5635 448.43 28.4259 448.404 27.1821C448.385 27.0442 448.393 26.9039 448.429 26.7693C448.465 26.6348 448.527 26.5086 448.612 26.3984C448.697 26.3265 448.795 26.2721 448.901 26.2383C449.007 26.2044 449.119 26.1918 449.23 26.2012C450.659 26.2012 451.52 27.718 452.518 28.7293C453.096 29.3104 453.785 29.7695 454.544 30.0793C455.451 30.4534 456.57 30.7163 456.95 31.6264C457.102 32.0057 457.082 32.4354 457.244 32.8147C457.882 34.3315 460.603 33.8259 461.297 35.3427C461.489 35.7675 461.479 36.2984 461.803 36.6321C462.127 36.9658 462.735 36.9607 463.237 37.0416C465.212 37.3652 466.175 39.6506 467.867 40.7276C469.29 41.6326 471.124 41.6124 472.654 42.3203C473.51 42.7147 474.265 43.3315 475.187 43.5894C476.109 43.8472 477.107 43.7107 478.074 43.736C478.177 43.7263 478.281 43.7379 478.38 43.7701C478.478 43.8023 478.569 43.8543 478.647 43.9231C478.706 44.0147 478.746 44.1181 478.762 44.2262C478.779 44.3343 478.772 44.4447 478.743 44.55C478.273 47.5403 477.031 50.357 475.139 52.7224C473.247 55.0878 470.77 56.9205 467.953 58.0399C467.628 58.1448 467.319 58.2946 467.036 58.4849C466.175 59.127 466.023 60.5074 465.045 60.9624C464.692 61.0863 464.312 61.1104 463.946 61.0318C463.581 60.9533 463.244 60.7753 462.973 60.5175C462.434 59.9991 461.926 59.4487 461.454 58.8692C460.561 57.9385 459.389 57.3227 458.115 57.1147C456.94 56.9276 455.623 57.0641 454.676 56.3461C454.287 55.9862 453.925 55.5993 453.592 55.1883C452.884 54.5318 452.045 54.0322 451.13 53.722C448.633 52.7379 445.994 52.1608 443.313 52.013C440.821 51.8765 438.248 52.0989 435.892 51.2899C435.278 51.1021 434.713 50.7829 434.236 50.3545C433.726 49.8079 433.349 49.1525 433.131 48.4382C432.271 45.9585 432.096 43.2931 432.625 40.7225Z" fill="#0069F0"/>
<path d="M444.843 26.7725C444.144 26.7118 443.445 26.7977 442.741 26.7725C441.915 26.7725 441.1 26.5702 440.274 26.5652C438.967 26.5872 437.7 27.0253 436.66 27.8156C435.619 28.6059 434.859 29.7072 434.489 30.959C434.419 31.1589 434.407 31.3743 434.453 31.5809C434.481 31.6829 434.544 31.7717 434.631 31.8311C434.719 31.8905 434.825 31.9165 434.93 31.9045C435.205 31.1582 435.562 30.4444 435.993 29.7758C436.783 28.7082 437.903 27.9299 439.18 27.5612C440.453 27.2037 441.794 27.1552 443.09 27.4196C443.627 27.5208 444.159 27.6674 444.686 27.809L447.219 28.5067C447.685 28.6331 448.151 28.7595 448.607 28.9264C448.957 29.0578 449.554 29.5382 449.899 29.5584C450.365 29.5584 449.985 29.1539 449.777 28.8809C449.366 28.3184 448.789 27.8991 448.126 27.6826C447.073 27.2477 445.97 26.9421 444.843 26.7725Z" fill="#0069F0"/>
<path d="M438.471 55.2033C437.858 57.1651 437.245 59.132 436.475 61.0381C435.098 64.353 433.364 67.5082 431.303 70.4477C429.975 72.3838 428.548 74.2503 427.027 76.0398C425.122 78.2797 422.975 80.5348 422.326 83.3966C421.936 85.0499 422.068 86.7792 421.906 88.4528C421.744 90.1263 421.192 91.9314 419.824 92.9426C418.841 93.6657 417.59 93.8831 416.389 94.0702C415.533 94.2117 414.459 94.2522 414.008 93.5089C413.855 93.2044 413.773 92.8689 413.77 92.528L413.568 90.0556C413.522 89.5499 413.33 88.837 412.798 88.8117C412.266 88.7865 411.987 89.4994 411.531 89.823C410.923 90.2477 410.012 89.823 409.677 89.1808C409.4 88.4856 409.382 87.714 409.627 87.0067C409.996 85.5996 410.66 84.2865 411.574 83.1536C412.488 82.0208 413.632 81.0938 414.93 80.4337C415.833 80.0656 416.699 79.6154 417.519 79.0887C418.348 78.3694 419.035 77.5017 419.545 76.5303C424.246 68.8044 428.972 61.0381 432.29 52.6297C432.944 51.1271 433.386 49.5412 433.602 47.9174C433.765 46.264 433.511 44.6005 433.4 42.9421C433.203 39.9645 433.48 36.9747 434.22 34.0837C434.381 33.3215 434.669 32.5916 435.071 31.9247C436.434 29.8567 439.631 29.5483 441.657 30.9792C442.404 31.5518 443.023 32.2731 443.476 33.0974C443.928 33.9217 444.204 34.8309 444.286 35.7674C444.433 37.441 443.46 39.1803 442.974 40.7426C441.468 45.5662 439.967 50.3865 438.471 55.2033Z" fill="#A1616A"/>
<path d="M410.103 11.9882C410.027 11.1995 410.736 10.4714 411.541 9.96575C412.39 9.52008 413.204 9.01311 413.978 8.4489C414.697 7.82699 415.087 7.02306 415.812 6.39609C416.627 5.77436 417.554 5.31437 418.542 5.04104C420.647 4.30195 422.856 3.90421 425.087 3.86295C427.346 3.86295 429.646 4.36856 431.348 5.51631C431.762 5.77456 432.123 6.10918 432.412 6.50227C432.68 6.98767 432.852 7.51972 432.919 8.06969C433.323 9.76613 433.87 11.4254 434.555 13.0298C435.259 14.8146 436.009 16.6652 437.665 18.0455C439.438 19.5169 442.148 20.3663 443.319 22.1511C443.447 22.3089 443.537 22.4941 443.582 22.6923C443.627 22.8905 443.625 23.0964 443.577 23.2938C443.41 23.7489 442.873 24.0523 442.376 24.3354C439.494 25.9837 437.017 28.1225 435.735 30.6759C434.454 33.2292 434.499 36.2377 436.318 38.5888C436.986 39.4585 437.908 40.4899 437.255 41.3646C436.242 42.6944 432.853 41.9309 432.063 43.3416C431.814 43.7865 431.961 44.3023 431.956 44.7877C431.956 46.2641 430.538 47.5736 428.81 48.2562C427.083 48.9388 425.082 49.1006 423.137 49.1865C422.62 48.028 422.57 46.7157 422.995 45.5208C423.124 45.2647 423.175 44.9764 423.142 44.6916C422.999 44.3707 422.774 44.0933 422.488 43.8877C420.411 41.9309 420.847 39.0438 422.098 36.7129C423.35 34.382 425.29 32.2534 426.014 29.8011C426.369 28.5826 426.374 27.2124 425.401 26.2062C424.848 25.7182 424.251 25.2816 423.618 24.9017C422.484 24.1352 421.611 23.0416 421.116 21.7669C420.533 20.154 420.609 18.2276 418.917 17.1455C417.291 16.1343 415.006 16.4225 413.208 15.7298C411.83 15.2394 410.219 13.141 410.103 11.9882Z" fill="#464353"/>
<path d="M241.091 54.7028C240.711 58.8337 243.842 62.8433 242.93 66.8882C242.732 67.7528 242.363 68.5719 242.226 69.4466C241.846 71.8483 243.28 74.1185 244.652 76.1309L256.42 93.3725C256.895 94.1286 257.459 94.8246 258.102 95.4455C260.356 97.468 263.73 97.2303 266.683 97.832C268.76 98.2501 270.722 99.1126 272.432 100.36C272.471 100.388 272.504 100.423 272.528 100.464C272.553 100.505 272.569 100.55 272.576 100.597C272.584 100.644 272.581 100.692 272.569 100.738C272.558 100.784 272.537 100.828 272.508 100.866C272.022 101.533 271.376 102.068 270.629 102.421C269.882 102.775 269.058 102.935 268.233 102.888C267.924 103.293 268.233 103.899 268.659 104.183C269.292 104.622 270.178 104.739 270.29 105.806C270.33 106.178 270.254 106.555 270.072 106.883C269.598 107.606 268.86 108.118 268.015 108.308C263.963 109.552 259.535 107.368 256.486 104.395C253.436 101.422 251.248 97.6702 248.254 94.6416C246.598 92.968 244.708 91.5371 243.006 89.914C239.602 86.673 236.952 82.7393 234.394 78.7904C233.558 77.6454 232.927 76.364 232.53 75.0034C232.216 73.6635 232.358 72.2376 231.993 70.9079C231.517 69.1584 230.24 67.768 229.172 66.3017C227.085 63.4298 225.691 59.9208 225.965 56.3815C226.239 52.8421 228.437 49.3483 231.791 48.1601C232.827 47.7478 233.969 47.6786 235.048 47.9629C236.416 48.3826 237.424 49.5152 238.366 50.5972L240.595 53.1758C241.156 53.7402 241.598 54.4106 241.897 55.1478C242.04 55.5186 242.073 55.9228 241.992 56.3119C241.911 56.7011 241.72 57.0588 241.441 57.3421" fill="#FBBEBE"/>
<path opacity="0.05" d="M241.091 54.7028C240.711 58.8337 243.842 62.8433 242.93 66.8882C242.732 67.7528 242.363 68.5719 242.226 69.4466C241.846 71.8483 243.28 74.1185 244.652 76.1309L256.42 93.3725C256.895 94.1286 257.459 94.8246 258.102 95.4455C260.356 97.468 263.73 97.2303 266.683 97.832C268.76 98.2501 270.722 99.1126 272.432 100.36C272.471 100.388 272.504 100.423 272.528 100.464C272.553 100.505 272.569 100.55 272.576 100.597C272.584 100.644 272.581 100.692 272.569 100.738C272.558 100.784 272.537 100.828 272.508 100.866C272.022 101.533 271.376 102.068 270.629 102.421C269.882 102.775 269.058 102.935 268.233 102.888C267.924 103.293 268.233 103.899 268.659 104.183C269.292 104.622 270.178 104.739 270.29 105.806C270.33 106.178 270.254 106.555 270.072 106.883C269.598 107.606 268.86 108.118 268.015 108.308C263.963 109.552 259.535 107.368 256.486 104.395C253.436 101.422 251.248 97.6702 248.254 94.6416C246.598 92.968 244.708 91.5371 243.006 89.914C239.602 86.673 236.952 82.7393 234.394 78.7904C233.558 77.6454 232.927 76.364 232.53 75.0034C232.216 73.6635 232.358 72.2376 231.993 70.9079C231.517 69.1584 230.24 67.768 229.172 66.3017C227.085 63.4298 225.691 59.9208 225.965 56.3815C226.239 52.8421 228.437 49.3483 231.791 48.1601C232.827 47.7478 233.969 47.6786 235.048 47.9629C236.416 48.3826 237.424 49.5152 238.366 50.5972L240.595 53.1758C241.156 53.7402 241.598 54.4106 241.897 55.1478C242.04 55.5186 242.073 55.9228 241.992 56.3119C241.911 56.7011 241.72 57.0588 241.441 57.3421" fill="black"/>
<path d="M232.186 161.034C234.754 162.597 237.956 162.693 240.944 162.329C241.426 162.268 241.998 162.233 242.307 162.602C242.753 163.143 242.226 163.931 241.679 164.366C239.914 165.687 237.841 166.538 235.656 166.839C233.706 167.113 231.738 167.243 229.769 167.228C224.4 167.319 219 167.41 213.681 166.637C213.374 166.615 213.076 166.528 212.804 166.384C212.466 166.14 212.23 165.78 212.141 165.372C211.776 163.997 212.48 162.511 213.539 161.555C214.598 160.599 215.96 160.038 217.288 159.533L221.963 157.717C223.057 157.293 224.815 156.16 226.016 156.246C228.209 156.418 230.327 159.947 232.186 161.034Z" fill="#3F3D56"/>
<path opacity="0.05" d="M232.186 161.034C234.754 162.597 237.956 162.693 240.944 162.329C241.426 162.268 241.998 162.233 242.307 162.602C242.753 163.143 242.226 163.931 241.679 164.366C239.914 165.687 237.841 166.538 235.656 166.839C233.706 167.113 231.738 167.243 229.769 167.228C224.4 167.319 219 167.41 213.681 166.637C213.374 166.615 213.076 166.528 212.804 166.384C212.466 166.14 212.23 165.78 212.141 165.372C211.776 163.997 212.48 162.511 213.539 161.555C214.598 160.599 215.96 160.038 217.288 159.533L221.963 157.717C223.057 157.293 224.815 156.16 226.016 156.246C228.209 156.418 230.327 159.947 232.186 161.034Z" fill="black"/>
<path d="M228.923 99.1163C230.864 101.7 232.88 104.678 232.398 107.879C232.14 109.603 231.173 111.125 230.463 112.717C229.576 114.909 228.919 117.186 228.503 119.513C227.773 122.895 227.044 126.288 226.598 129.721C226.092 133.599 228.478 144.824 228.7 148.728C228.751 149.668 228.863 150.689 229.516 151.367C229.774 151.635 230.119 151.872 230.23 152.201C230.301 152.537 230.247 152.888 230.078 153.187C228.979 155.654 226.735 157.49 224.243 158.542C221.75 159.593 215.687 161.403 212.982 161.494C212.623 161.536 212.259 161.489 211.923 161.358C211.559 161.138 211.272 160.811 211.102 160.422C209.152 156.691 211.026 143.424 210.996 139.217C210.996 135.703 210.14 132.214 210.297 128.705C210.418 125.889 211.173 123.143 211.452 120.332C211.903 115.726 211.052 111.104 210.206 106.554C209.557 103.07 208.904 99.5814 208.073 96.1331C207.566 94.0348 206.979 91.9112 205.819 90.0657C204.902 88.6146 203.656 87.4062 202.612 86.0461C199.705 82.2457 198.413 77.4563 199.016 72.7129C199.076 72.2427 205.768 74.4017 206.346 74.6545C208.745 75.673 210.953 77.0922 212.875 78.8511C214.395 80.3174 215.641 82.2843 216.994 83.9326C218.909 86.2584 220.798 88.6045 222.662 90.9708C224.78 93.6708 226.867 96.3859 228.923 99.1163Z" fill="#464353"/>
<path opacity="0.05" d="M228.923 98.9595C230.864 101.548 232.88 104.521 232.398 107.727C232.14 109.451 231.173 110.968 230.463 112.561C229.576 114.752 228.919 117.029 228.503 119.356C227.774 122.744 227.044 126.131 226.598 129.565C226.092 133.448 228.478 144.667 228.701 148.576C228.751 149.516 228.863 150.538 229.516 151.215C229.774 151.478 230.119 151.695 230.23 152.044C230.301 152.381 230.247 152.731 230.078 153.03C228.979 155.498 226.735 157.338 224.243 158.39C221.75 159.442 215.687 160.412 212.982 160.493C212.623 160.535 212.259 160.488 211.923 160.357C211.559 160.137 211.272 159.81 211.102 159.421C209.152 155.69 211.026 143.267 210.996 139.06C210.996 135.546 210.14 132.062 210.297 128.548C210.418 125.732 211.173 122.986 211.452 120.175C211.903 115.574 211.052 110.948 210.206 106.402C209.557 102.913 208.904 99.4247 208.073 95.9814C207.566 93.8781 206.979 91.7545 205.819 89.914C204.902 88.468 203.656 87.2545 202.612 85.8994C199.704 82.0977 198.412 77.3063 199.016 72.5612C199.076 72.096 205.768 74.255 206.346 74.5078C208.747 75.5226 210.956 76.9421 212.875 78.7045C214.395 80.1708 215.641 82.1376 216.994 83.7607C218.909 86.0865 220.798 88.4326 222.662 90.7989C224.78 93.5022 226.867 96.2224 228.923 98.9595Z" fill="black"/>
<path d="M250.549 42.2292C256.572 42.2292 261.455 37.3554 261.455 31.3433C261.455 25.3311 256.572 20.4573 250.549 20.4573C244.525 20.4573 239.642 25.3311 239.642 31.3433C239.642 37.3554 244.525 42.2292 250.549 42.2292Z" fill="#FBBEBE"/>
<path d="M240.732 30.8882C239.726 32.4948 238.407 33.8829 236.853 34.9696C235.298 36.0563 233.54 36.8194 231.684 37.2135L232.505 40.1815C233.923 45.3034 235.514 50.7185 239.48 54.268C239.045 52.5337 239.607 50.673 240.585 49.1764C241.637 47.7265 242.883 46.4268 244.288 45.3135L250.564 39.8629C250.754 39.7277 250.914 39.5557 251.035 39.3573C251.19 38.9745 251.19 38.5469 251.035 38.164C250.235 35.6815 247.95 34.1191 246.106 32.4556C245.173 31.5858 244.339 30.6159 243.619 29.5635C242.332 27.7736 241.557 29.5584 240.732 30.8882Z" fill="#FBBEBE"/>
<path d="M264.92 20.4017L265.163 18.3792C263.441 18.8242 261.81 17.368 260.711 15.8512C259.611 14.3343 258.588 12.5545 256.911 11.9276C254.885 11.1641 252.717 12.3877 250.772 13.3989C248.591 14.611 246.197 15.3921 243.72 15.6995C243.325 15.7153 242.934 15.7798 242.555 15.8916C241.289 16.3416 240.691 17.9141 240.504 19.3652C240.316 20.8163 240.372 22.3332 239.744 23.6174C239.273 24.5882 238.457 25.3163 237.961 26.2719C236.628 28.8455 237.915 32.3646 236.507 34.8927L240.002 31.6972C240.326 31.404 240.777 31.0955 241.127 31.3433C241.476 31.591 241.431 31.9652 241.542 32.309C241.881 33.3203 243.128 33.5984 244.034 33.209C244.941 32.8197 245.595 31.9601 246.253 31.1866C247.798 29.3663 249.642 27.7686 251.825 26.9899C252.772 26.6274 253.786 26.4711 254.799 26.5312C255.811 26.5914 256.799 26.8667 257.696 27.3388C259.328 28.259 260.523 30.4028 262.524 30.4787C265.265 30.5798 266.404 25.4882 267.671 23.4759C267.208 23.1262 266.882 22.6256 266.751 22.0612C266.619 21.4967 266.69 20.9042 266.951 20.3865C266.744 20.3006 264.956 20.0882 264.92 20.4017Z" fill="#464353"/>
<path d="M219.466 160.943C221.618 162.867 224.419 163.909 227.307 163.861C228.042 163.861 229.06 164.002 229.065 164.735C229.048 164.953 228.973 165.163 228.847 165.342C227.935 166.861 226.491 167.989 224.795 168.507C223.219 168.983 221.543 168.907 219.901 168.821L215.114 168.573C214.208 168.528 213.301 168.477 212.399 168.371C211.497 168.265 210.525 168.067 209.588 167.931C207.278 167.602 204.943 167.492 202.612 167.602C201.999 167.628 201.28 167.602 200.9 167.142C200.52 166.682 200.723 165.833 200.86 165.16C201.143 163.775 200.86 162.324 201.123 160.933C201.584 158.496 203.686 156.625 206.011 155.74C208.164 154.921 211.984 153.986 214.02 155.346C216.219 156.812 217.531 159.199 219.466 160.943Z" fill="#3F3D56"/>
<path d="M214.724 79.2304C214.299 81.2528 212.354 82.7697 212.298 84.8174C212.252 86.4556 213.422 87.8512 214.263 89.2365C215.068 90.6929 215.745 92.2153 216.29 93.7871C217.883 97.859 219.859 101.771 222.191 105.472C223.316 107.247 224.572 109.178 224.314 111.266C224.137 112.241 223.794 113.178 223.3 114.037L219.932 120.716C219.192 122.05 218.616 123.467 218.215 124.938C217.921 126.207 217.89 127.522 217.708 128.816C217.176 132.912 215.251 137.038 216.391 141.012C216.487 141.351 216.847 141.765 217.11 141.517C216.001 143.59 215.084 145.684 215.19 148.035C215.236 149.269 215.616 150.563 215.155 151.706C214.897 152.152 214.725 152.642 214.648 153.152C214.648 153.49 214.805 153.809 214.841 154.163C214.937 155.108 214.066 155.897 213.164 156.185C212.262 156.474 211.275 156.469 210.363 156.737C208.61 157.242 207.359 158.759 205.854 159.811C204.333 160.865 202.534 161.451 200.682 161.494C200.418 161.522 200.151 161.47 199.917 161.343C199.785 161.227 199.679 161.085 199.606 160.925C199.532 160.766 199.494 160.593 199.492 160.417C199.412 159.58 199.539 158.736 199.862 157.96C200.186 157.183 200.695 156.497 201.346 155.963C201.63 155.783 201.867 155.537 202.035 155.245C202.116 154.985 202.137 154.71 202.096 154.441C201.822 150.767 201.888 147.076 202.293 143.414C202.476 142.252 202.535 141.074 202.47 139.899C202.374 138.924 202.08 137.953 202.187 136.977C202.293 136.001 202.789 135.121 203.083 134.181C203.59 132.512 203.463 130.723 203.514 128.973C203.605 125.939 204.299 122.966 204.993 120.014C205.267 118.856 205.571 117.637 206.391 116.778C207.09 116.049 208.225 115.352 207.962 114.376C207.815 114.017 207.596 113.692 207.318 113.42C206.993 113.012 206.753 112.542 206.615 112.039C206.476 111.536 206.442 111.01 206.513 110.493C206.217 110.571 205.902 110.544 205.624 110.414C205.346 110.285 205.123 110.062 204.993 109.785C199.517 107.211 195.09 102.054 193.139 96.3304C193.03 95.9084 192.859 95.5047 192.633 95.1321C192.126 94.4242 191.245 94.1208 190.465 93.7264C188.013 92.4978 186.316 90.1871 184.761 87.927C183.859 86.6174 182.952 85.2624 182.562 83.7152C182.349 82.7182 182.247 81.7008 182.258 80.6815L182.121 75.4129C182.094 75.0725 182.128 74.73 182.223 74.4017C182.354 74.087 182.549 73.8029 182.795 73.5674C184.286 71.9818 186.249 70.918 188.393 70.5337C189.826 70.2809 191.295 70.3264 192.749 70.2101C195.571 69.9725 198.357 69.1028 201.184 69.3051C205.616 69.6337 209.567 72.6978 211.654 76.6163C212.374 78.0118 213.149 79.2051 214.724 79.2304Z" fill="#464353"/>
<path d="M239.344 44.9696C239.281 45.7824 239.391 46.5992 239.668 47.3663C240.007 48.1045 240.878 48.6758 241.638 48.3775C241.405 47.8719 242.013 47.2752 242.58 47.3359C242.858 47.3984 243.116 47.5273 243.332 47.7114C243.548 47.8955 243.716 48.1293 243.822 48.3927C244.199 49.1441 244.326 49.9959 244.186 50.8247C244.004 51.8359 243.406 52.8472 243.563 53.8837C243.69 54.7432 244.323 55.6028 243.984 56.4118C243.765 56.7753 243.492 57.1028 243.173 57.3825C242.729 57.928 242.512 58.6226 242.565 59.3234C242.619 60.0242 242.94 60.6777 243.462 61.1494L234.962 61.3213C235.276 62.737 234.637 64.1882 233.908 65.4472C231.867 68.9081 229.051 71.8503 225.681 74.0433C222.311 76.2363 218.477 77.6206 214.481 78.0876C214.697 78.2138 214.882 78.3862 215.023 78.5924C215.164 78.7986 215.258 79.0334 215.297 79.2801C215.337 79.5267 215.32 79.7789 215.25 80.0186C215.18 80.2583 215.058 80.4795 214.891 80.6663C214.197 81.3488 213.027 81.2679 212.161 80.8179C211.295 80.3679 210.616 79.6398 209.821 79.0736C208.426 78.0839 206.722 77.6264 205.018 77.7842C203.955 77.8854 202.921 78.2241 201.852 78.2899C198.707 78.4567 195.996 76.1966 192.987 75.2561C190.779 74.5786 188.276 74.5837 186.402 73.2084C185.607 72.6168 184.948 71.641 185.181 70.6803C185.383 70.1267 185.697 69.6206 186.103 69.1938C187.167 67.8185 187.795 66.1601 188.56 64.5977C190.084 61.5141 192.173 58.7427 194.72 56.4269C196.637 54.7517 198.668 53.2109 200.799 51.8157C201.315 51.4286 201.866 51.09 202.445 50.8045C203.219 50.5529 203.974 50.2471 204.704 49.8893C205.717 49.2623 206.28 48.155 207.05 47.2601C208.732 45.2983 211.32 44.3983 213.397 42.8561C214.79 41.8196 216.021 40.4545 217.683 39.9539C218.488 39.7112 219.354 39.691 220.16 39.4483C221.999 38.8921 223.336 37.264 225.134 36.6067C226.563 36.1011 228.133 36.2224 229.643 36.0354C231.303 35.8298 232.89 35.228 234.268 34.2809C234.726 33.9139 235.239 33.6205 235.787 33.4112C238.062 32.7185 238.249 36.9505 238.462 38.4219C238.776 40.596 239.344 42.7752 239.344 44.9696Z" fill="#0069F0"/>
<path d="M237.12 59.1776C236.74 63.3085 239.865 67.318 238.959 71.363C238.761 72.2276 238.386 73.0467 238.249 73.9163C237.874 76.318 239.308 78.5933 240.681 80.6057L252.448 97.8422C252.921 98.6003 253.485 99.2967 254.13 99.9152C256.384 101.912 259.758 101.705 262.712 102.302C264.788 102.722 266.749 103.584 268.461 104.83C268.536 104.889 268.585 104.974 268.599 105.068C268.613 105.162 268.591 105.257 268.537 105.335C268.05 106.002 267.404 106.536 266.657 106.89C265.91 107.243 265.087 107.404 264.262 107.358C263.953 107.762 264.262 108.369 264.687 108.652C265.32 109.087 266.207 109.203 266.313 110.275C266.358 110.648 266.283 111.025 266.1 111.352C265.625 112.075 264.888 112.586 264.044 112.778C259.991 114.022 255.564 111.838 252.514 108.865C249.465 105.892 247.276 102.14 244.283 99.1113C242.626 97.4377 240.737 96.0017 239.035 94.3787C235.63 91.1427 232.981 87.204 230.423 83.2551C229.586 82.11 228.956 80.8286 228.559 79.468C228.245 78.1231 228.386 76.7023 228.022 75.3675C227.546 73.6231 226.264 72.2326 225.2 70.7663C223.113 67.8944 221.715 64.3854 221.994 60.8461C222.272 57.3068 224.461 53.8231 227.804 52.6197C228.841 52.2077 229.982 52.1386 231.061 52.4225C232.434 52.8422 233.442 53.9747 234.379 55.0568L236.613 57.6304C237.173 58.1977 237.615 58.8695 237.915 59.6073C238.059 59.9784 238.092 60.3832 238.01 60.7727C237.928 61.1622 237.735 61.5196 237.454 61.8017" fill="#FBBEBE"/>
<path d="M231.168 42.2039C232.718 42.2949 234.415 42.4517 235.509 43.5489C235.966 44.0561 236.335 44.6352 236.603 45.2629C237.667 47.4168 238.695 49.6719 238.776 52.0736C238.837 53.9949 238.27 55.8708 237.986 57.7719C237.743 59.3494 238.361 60.9623 238.493 62.555C236.573 61.9736 234.04 61.1747 232.302 60.1786C231.159 59.4345 229.944 58.8061 228.675 58.3028C226.831 57.6859 223.721 58.7427 221.978 59.6022C221.882 58.3736 222.809 56.2298 222.713 54.996C222.696 54.4795 222.602 53.9683 222.434 53.4792C222.174 52.9599 221.863 52.4672 221.507 52.0078C220.835 50.9226 220.526 49.6525 220.623 48.3804C220.721 47.1084 221.22 45.9 222.049 44.9292C223.604 43.1798 226.046 42.5225 228.376 42.2545C229.842 42.0834 231.319 42.031 232.794 42.0977" fill="#0069F0"/>
<path d="M516.852 153.303L506.72 254.427L157.695 396L39.6643 285.27L31.0526 181.112L363.868 84.0338L516.852 153.303Z" fill="#DFE6F5"/>
<path opacity="0.1" d="M157.695 396L39.6643 285.27L31.0526 181.112L154.655 281.73L157.695 396Z" fill="black"/>
<path opacity="0.05" d="M516.852 153.303L506.72 254.427L157.695 396L154.655 281.73L516.852 153.303Z" fill="black"/>
<path d="M40.9308 188.949L366.148 96.9269L500.895 159.118L154.402 281.477L40.9308 188.949Z" fill="#A7ADB8"/>
<path d="M423.897 42.6185L419.9 43.023L314.964 53.5601C309.963 54.0565 305.298 56.3003 301.793 59.8955L244.551 118.689L116.004 250.68L154.149 281.73L246.132 249.118L286.237 234.91L399.009 100.178L434.555 57.7061C434.555 57.7061 435.477 45.6269 423.897 42.6185ZM316.717 107.889C311.879 110.695 306.585 110.619 304.904 107.722C303.764 105.76 304.574 103.004 306.717 100.557C307.835 99.2951 309.15 98.2227 310.613 97.382C314.615 95.0612 318.915 94.7174 321.251 96.305C321.734 96.6255 322.139 97.0506 322.436 97.5488C324.113 100.461 321.555 105.088 316.717 107.889Z" fill="#454B69"/>
<path opacity="0.1" d="M423.897 42.6185L419.9 43.023C424.798 48.1651 422.25 49.6466 422.25 49.6466L383.751 93.2612L246.132 249.118L286.237 234.91L399.009 100.178L434.555 57.7061C434.555 57.7061 435.477 45.6269 423.897 42.6185Z" fill="black"/>
<path d="M310.613 97.382C309.151 98.2181 307.836 99.2853 306.717 100.542L321.241 96.305C318.92 94.7326 314.615 95.0764 310.613 97.382Z" fill="#DFE6F5"/>
<path d="M304.904 107.722C306.591 110.619 311.879 110.695 316.717 107.889C321.555 105.083 324.113 100.461 322.426 97.564C322.129 97.0658 321.724 96.6407 321.24 96.3202L306.717 100.557C304.574 103.004 303.764 105.76 304.904 107.722Z" fill="#DFE6F5"/>
<path opacity="0.1" d="M379.883 335.984C390.906 330.469 399.122 324.567 398.234 322.799C397.347 321.032 387.692 324.069 376.669 329.583C365.647 335.097 357.431 341 358.318 342.767C359.206 344.535 368.861 341.498 379.883 335.984Z" fill="#0069F0"/>
<path d="M378.402 332.894C379.465 332.894 380.327 331.766 380.327 330.376C380.327 328.985 379.465 327.858 378.402 327.858C377.339 327.858 376.477 328.985 376.477 330.376C376.477 331.766 377.339 332.894 378.402 332.894Z" fill="#3F3D56"/>
<path d="M378.402 329.815C379.465 329.815 380.327 328.687 380.327 327.297C380.327 325.906 379.465 324.779 378.402 324.779C377.339 324.779 376.477 325.906 376.477 327.297C376.477 328.687 377.339 329.815 378.402 329.815Z" fill="#3F3D56"/>
<path d="M378.402 326.74C379.465 326.74 380.327 325.613 380.327 324.222C380.327 322.832 379.465 321.704 378.402 321.704C377.339 321.704 376.477 322.832 376.477 324.222C376.477 325.613 377.339 326.74 378.402 326.74Z" fill="#3F3D56"/>
<path d="M378.402 323.666C379.465 323.666 380.327 322.539 380.327 321.148C380.327 319.758 379.465 318.63 378.402 318.63C377.339 318.63 376.477 319.758 376.477 321.148C376.477 322.539 377.339 323.666 378.402 323.666Z" fill="#3F3D56"/>
<path d="M378.402 320.592C379.465 320.592 380.327 319.465 380.327 318.074C380.327 316.684 379.465 315.556 378.402 315.556C377.339 315.556 376.477 316.684 376.477 318.074C376.477 319.465 377.339 320.592 378.402 320.592Z" fill="#3F3D56"/>
<path d="M378.402 317.518C379.465 317.518 380.327 316.391 380.327 315C380.327 313.609 379.465 312.482 378.402 312.482C377.339 312.482 376.477 313.609 376.477 315C376.477 316.391 377.339 317.518 378.402 317.518Z" fill="#3F3D56"/>
<path d="M378.402 314.444C379.465 314.444 380.327 313.316 380.327 311.926C380.327 310.535 379.465 309.408 378.402 309.408C377.339 309.408 376.477 310.535 376.477 311.926C376.477 313.316 377.339 314.444 378.402 314.444Z" fill="#3F3D56"/>
<path d="M385.61 290.882C385.872 290.546 386.11 290.193 386.324 289.825L381.259 288.996L386.735 289.037C387.258 287.897 387.544 286.662 387.573 285.409C387.603 284.155 387.376 282.909 386.907 281.746L379.567 285.543L386.34 280.578C385.702 279.491 384.847 278.546 383.828 277.802C382.81 277.058 381.649 276.53 380.418 276.252C379.187 275.973 377.912 275.95 376.672 276.184C375.431 276.417 374.252 276.902 373.207 277.608C372.162 278.315 371.274 279.228 370.596 280.291C369.919 281.354 369.467 282.544 369.27 283.789C369.072 285.033 369.132 286.304 369.446 287.524C369.761 288.745 370.322 289.887 371.097 290.882C370.7 291.4 370.361 291.96 370.084 292.551L376.669 295.953L369.668 293.607C369.177 295.058 369.056 296.608 369.315 298.118C369.574 299.627 370.205 301.049 371.153 302.253C370.083 303.612 369.417 305.243 369.232 306.961C369.047 308.679 369.351 310.414 370.107 311.968C370.863 313.522 372.043 314.832 373.51 315.749C374.977 316.665 376.673 317.152 378.404 317.152C380.135 317.152 381.831 316.665 383.299 315.749C384.766 314.832 385.945 313.522 386.701 311.968C387.458 310.414 387.761 308.679 387.576 306.961C387.391 305.243 386.726 303.612 385.656 302.253C386.932 300.63 387.626 298.626 387.626 296.563C387.626 294.499 386.932 292.495 385.656 290.872L385.61 290.882Z" fill="#0069F0"/>
<path opacity="0.1" d="M369.136 296.595C369.135 298.651 369.826 300.647 371.097 302.263C370.027 303.622 369.361 305.253 369.177 306.971C368.992 308.689 369.295 310.424 370.051 311.978C370.808 313.532 371.987 314.842 373.454 315.759C374.921 316.676 376.617 317.162 378.348 317.162C380.079 317.162 381.775 316.676 383.243 315.759C384.71 314.842 385.889 313.532 386.646 311.978C387.402 310.424 387.705 308.689 387.52 306.971C387.335 305.253 386.67 303.622 385.6 302.263C386.846 300.696 369.136 295.539 369.136 296.595Z" fill="black"/>
<path opacity="0.1" d="M495.831 301.061C503.037 297.457 508.408 293.597 507.827 292.442C507.247 291.286 500.935 293.271 493.729 296.876C486.524 300.481 481.153 304.34 481.733 305.496C482.313 306.651 488.625 304.666 495.831 301.061Z" fill="#0069F0"/>
<path d="M494.867 299.053C495.561 299.053 496.123 298.317 496.123 297.41C496.123 296.502 495.561 295.766 494.867 295.766C494.173 295.766 493.61 296.502 493.61 297.41C493.61 298.317 494.173 299.053 494.867 299.053Z" fill="#3F3D56"/>
<path d="M494.867 297.04C495.561 297.04 496.123 296.305 496.123 295.397C496.123 294.49 495.561 293.754 494.867 293.754C494.173 293.754 493.61 294.49 493.61 295.397C493.61 296.305 494.173 297.04 494.867 297.04Z" fill="#3F3D56"/>
<path d="M494.867 295.028C495.561 295.028 496.123 294.292 496.123 293.385C496.123 292.477 495.561 291.742 494.867 291.742C494.173 291.742 493.61 292.477 493.61 293.385C493.61 294.292 494.173 295.028 494.867 295.028Z" fill="#3F3D56"/>
<path d="M494.867 293.021C495.561 293.021 496.123 292.285 496.123 291.378C496.123 290.47 495.561 289.734 494.867 289.734C494.173 289.734 493.61 290.47 493.61 291.378C493.61 292.285 494.173 293.021 494.867 293.021Z" fill="#3F3D56"/>
<path d="M494.867 291.008C495.561 291.008 496.123 290.273 496.123 289.365C496.123 288.458 495.561 287.722 494.867 287.722C494.173 287.722 493.61 288.458 493.61 289.365C493.61 290.273 494.173 291.008 494.867 291.008Z" fill="#3F3D56"/>
<path d="M494.867 289.001C495.561 289.001 496.123 288.265 496.123 287.358C496.123 286.45 495.561 285.715 494.867 285.715C494.173 285.715 493.61 286.45 493.61 287.358C493.61 288.265 494.173 289.001 494.867 289.001Z" fill="#3F3D56"/>
<path d="M494.867 286.989C495.561 286.989 496.123 286.253 496.123 285.345C496.123 284.438 495.561 283.702 494.867 283.702C494.173 283.702 493.61 284.438 493.61 285.345C493.61 286.253 494.173 286.989 494.867 286.989Z" fill="#3F3D56"/>
<path d="M499.578 271.588C499.75 271.37 499.906 271.14 500.044 270.9L496.736 270.359H500.318C500.682 269.566 500.87 268.703 500.87 267.831C500.87 267.059 500.721 266.295 500.429 265.581L495.632 268.063L500.059 264.817C499.643 264.106 499.084 263.488 498.418 263.001C497.753 262.514 496.994 262.168 496.189 261.986C495.384 261.804 494.55 261.788 493.739 261.941C492.928 262.093 492.157 262.41 491.474 262.873C490.79 263.335 490.209 263.932 489.767 264.627C489.324 265.323 489.029 266.101 488.9 266.915C488.772 267.729 488.812 268.56 489.018 269.358C489.224 270.156 489.593 270.902 490.1 271.552C489.832 271.893 489.601 272.261 489.411 272.649L493.707 274.879L489.148 273.362C488.826 274.311 488.746 275.325 488.916 276.312C489.086 277.299 489.5 278.228 490.12 279.015C489.419 279.903 488.983 280.97 488.861 282.094C488.739 283.218 488.937 284.354 489.431 285.371C489.926 286.388 490.697 287.246 491.657 287.846C492.617 288.446 493.727 288.764 494.859 288.764C495.992 288.764 497.102 288.446 498.062 287.846C499.022 287.246 499.793 286.388 500.287 285.371C500.782 284.354 500.979 283.218 500.857 282.094C500.736 280.97 500.299 279.903 499.598 279.015C500.435 277.954 500.889 276.644 500.889 275.294C500.889 273.944 500.435 272.633 499.598 271.572L499.578 271.588Z" fill="#0069F0"/>
<path opacity="0.1" d="M488.808 275.309C488.806 276.659 489.261 277.971 490.1 279.03C489.399 279.918 488.963 280.985 488.841 282.109C488.719 283.233 488.917 284.369 489.411 285.386C489.905 286.403 490.677 287.261 491.637 287.861C492.597 288.461 493.706 288.779 494.839 288.779C495.972 288.779 497.081 288.461 498.041 287.861C499.001 287.261 499.773 286.403 500.267 285.386C500.762 284.369 500.959 283.233 500.837 282.109C500.715 280.985 500.279 279.918 499.578 279.03C500.383 278.004 488.808 274.631 488.808 275.309Z" fill="black"/>
<path opacity="0.1" d="M113.857 394.751C115.988 392.625 113.52 386.713 108.344 381.548C103.169 376.382 97.2468 373.919 95.1162 376.046C92.9856 378.172 95.4537 384.083 100.629 389.249C105.804 394.414 111.727 396.878 113.857 394.751Z" fill="#0069F0"/>
<path d="M105.427 386.262C107.044 386.262 108.355 384.548 108.355 382.434C108.355 380.32 107.044 378.607 105.427 378.607C103.81 378.607 102.499 380.32 102.499 382.434C102.499 384.548 103.81 386.262 105.427 386.262Z" fill="#3F3D56"/>
<path d="M105.427 381.585C107.044 381.585 108.355 379.871 108.355 377.757C108.355 375.643 107.044 373.93 105.427 373.93C103.81 373.93 102.499 375.643 102.499 377.757C102.499 379.871 103.81 381.585 105.427 381.585Z" fill="#3F3D56"/>
<path d="M105.427 376.903C107.044 376.903 108.355 375.189 108.355 373.075C108.355 370.961 107.044 369.248 105.427 369.248C103.81 369.248 102.499 370.961 102.499 373.075C102.499 375.189 103.81 376.903 105.427 376.903Z" fill="#3F3D56"/>
<path d="M105.427 372.221C107.044 372.221 108.355 370.507 108.355 368.393C108.355 366.279 107.044 364.566 105.427 364.566C103.81 364.566 102.499 366.279 102.499 368.393C102.499 370.507 103.81 372.221 105.427 372.221Z" fill="#3F3D56"/>
<path d="M105.427 367.544C107.044 367.544 108.355 365.83 108.355 363.716C108.355 361.602 107.044 359.889 105.427 359.889C103.81 359.889 102.499 361.602 102.499 363.716C102.499 365.83 103.81 367.544 105.427 367.544Z" fill="#3F3D56"/>
<path d="M105.427 362.862C107.044 362.862 108.355 361.148 108.355 359.034C108.355 356.92 107.044 355.207 105.427 355.207C103.81 355.207 102.499 356.92 102.499 359.034C102.499 361.148 103.81 362.862 105.427 362.862Z" fill="#3F3D56"/>
<path d="M105.427 358.185C107.044 358.185 108.355 356.471 108.355 354.357C108.355 352.243 107.044 350.53 105.427 350.53C103.81 350.53 102.499 352.243 102.499 354.357C102.499 356.471 103.81 358.185 105.427 358.185Z" fill="#3F3D56"/>
<path d="M116.399 322.331C116.799 321.823 117.163 321.287 117.488 320.729L109.789 319.465L118.117 319.525C118.92 317.788 119.358 315.904 119.405 313.991C119.451 312.078 119.104 310.176 118.385 308.402L107.21 314.186L117.514 306.602C116.551 304.932 115.254 303.479 113.703 302.333C112.152 301.186 110.381 300.371 108.501 299.938C106.62 299.506 104.671 299.465 102.774 299.818C100.877 300.171 99.073 300.911 97.4753 301.992C95.8776 303.072 94.5203 304.469 93.488 306.097C92.4558 307.724 91.7709 309.547 91.476 311.45C91.1811 313.354 91.2827 315.298 91.7743 317.16C92.2658 319.023 93.137 320.764 94.3332 322.276C93.7083 323.066 93.1715 323.923 92.7324 324.829L102.727 330.012L92.0891 326.442C91.3434 328.649 91.16 331.006 91.5553 333.301C91.9506 335.596 92.9123 337.757 94.3534 339.588C92.7248 341.655 91.7118 344.137 91.43 346.751C91.1482 349.366 91.6092 352.006 92.7601 354.371C93.911 356.736 95.7054 358.731 97.9383 360.126C100.171 361.521 102.752 362.261 105.386 362.261C108.021 362.261 110.602 361.521 112.835 360.126C115.068 358.731 116.862 356.736 118.013 354.371C119.164 352.006 119.625 349.366 119.343 346.751C119.061 344.137 118.048 341.655 116.42 339.588C118.365 337.119 119.423 334.068 119.423 330.927C119.423 327.785 118.365 324.735 116.42 322.266L116.399 322.331Z" fill="#0069F0"/>
<path opacity="0.1" d="M91.3292 330.978C91.3246 334.12 92.3831 337.172 94.3332 339.639C92.7046 341.705 91.6915 344.188 91.4098 346.802C91.128 349.416 91.5889 352.057 92.7398 354.422C93.8908 356.787 95.6852 358.781 97.9181 360.176C100.151 361.571 102.732 362.311 105.366 362.311C108.001 362.311 110.582 361.571 112.814 360.176C115.047 358.781 116.842 356.787 117.993 354.422C119.144 352.057 119.605 349.416 119.323 346.802C119.041 344.188 118.028 341.705 116.399 339.639C118.279 337.272 91.3292 329.42 91.3292 330.978Z" fill="black"/>
</g>
<defs>
<clipPath id="clip0">
<rect width="573" height="396" fill="white"/>
</clipPath>
</defs>
</svg>
