<svg width="456" height="396" viewBox="0 0 456 396" fill="none" xmlns="http://www.w3.org/2000/svg">
<g clip-path="url(#clip0)">
<path d="M205.161 396C274.54 396 330.783 393.179 330.783 389.699C330.783 386.22 274.54 383.399 205.161 383.399C135.782 383.399 79.5393 386.22 79.5393 389.699C79.5393 393.179 135.782 396 205.161 396Z" fill="#E6E6E6"/>
<path d="M62.3399 124.442C96.7692 124.442 124.68 96.585 124.68 62.2212C124.68 27.8574 96.7692 0 62.3399 0C27.9105 0 0 27.8574 0 62.2212C0 96.585 27.9105 124.442 62.3399 124.442Z" fill="#E6E6E6"/>
<path d="M62.3398 114.072C91.0309 114.072 114.29 90.8578 114.29 62.2212C114.29 33.5847 91.0309 10.3702 62.3398 10.3702C33.6486 10.3702 10.3899 33.5847 10.3899 62.2212C10.3899 90.8578 33.6486 114.072 62.3398 114.072Z" fill="#005FD8"/>
<path d="M227.887 124.442C262.316 124.442 290.227 96.585 290.227 62.2212C290.227 27.8574 262.316 0 227.887 0C193.458 0 165.547 27.8574 165.547 62.2212C165.547 96.585 193.458 124.442 227.887 124.442Z" fill="#E6E6E6"/>
<path d="M227.887 114.072C256.578 114.072 279.837 90.8578 279.837 62.2212C279.837 33.5847 256.578 10.3702 227.887 10.3702C199.196 10.3702 175.937 33.5847 175.937 62.2212C175.937 90.8578 199.196 114.072 227.887 114.072Z" fill="white"/>
<path d="M393.434 124.442C427.863 124.442 455.774 96.585 455.774 62.2212C455.774 27.8574 427.863 0 393.434 0C359.005 0 331.094 27.8574 331.094 62.2212C331.094 96.585 359.005 124.442 393.434 124.442Z" fill="#E6E6E6"/>
<path d="M393.434 114.072C422.125 114.072 445.383 90.8578 445.383 62.2212C445.383 33.5847 422.125 10.3702 393.434 10.3702C364.742 10.3702 341.484 33.5847 341.484 62.2212C341.484 90.8578 364.742 114.072 393.434 114.072Z" fill="white"/>
<path d="M57.5215 83.5251L42.387 64.1034L51.1881 57.2704L58.3542 66.4668L82.5626 40.9612L90.6573 48.6158L57.5215 83.5251Z" fill="white"/>
<path d="M172.805 74.9087C168.711 65.0396 168.046 55.7251 173.818 47.4513C173.92 44.6712 174.581 41.94 175.761 39.4196C176.941 36.8993 178.616 34.6411 180.687 32.7791C182.758 30.9171 185.183 29.4892 187.817 28.5801C190.451 27.671 193.242 27.2992 196.023 27.4867L199.786 27.7405C203.67 27.9923 207.406 29.3306 210.564 31.6021C213.722 33.8737 216.176 36.9868 217.645 40.5853C224.661 57.9547 224.882 81.0397 223.131 105.783H171.666C174.723 94.2115 176.292 83.3511 172.805 74.9087Z" fill="#2F2E41"/>
<path d="M106.344 105.189L92.744 99.0911C91.3888 98.4836 90.1804 97.5924 89.2006 96.4779C88.2208 95.3634 87.4925 94.0517 87.065 92.6317C86.6376 91.2117 86.521 89.7165 86.7231 88.2476C86.9252 86.7787 87.4414 85.3703 88.2366 84.1179C89.116 82.7329 90.3127 81.5764 91.728 80.7437C93.1432 79.9111 94.7365 79.4262 96.3764 79.329C98.0164 79.2318 99.656 79.5251 101.16 80.1848C102.664 80.8444 103.989 81.8514 105.027 83.1228L111.31 90.8229L140.602 116.753L160.074 103.783L168.898 118.717L137.313 137.76L106.344 105.189Z" fill="#9F616A"/>
<path d="M167.48 123.11L156.743 102.603L198.552 84.0158L198.914 87.9383C199.247 91.5477 198.63 95.1814 197.122 98.4791C195.615 101.777 193.27 104.624 190.32 106.738L167.48 123.11Z" fill="#005FD8"/>
<path d="M221.66 82.7905L179.018 118.013L176.568 114.589L188.331 93.553L193.722 91.107C195.014 85.6445 191.717 78.3191 187.351 70.5603L207.937 67.6251C208.93 74.289 213.455 79.3665 221.66 82.7905Z" fill="#9F616A"/>
<path d="M273.125 325.927L266.018 336.444L209.407 304.401L217.249 265.754L273.125 325.927Z" fill="#2F2E41"/>
<path d="M198.379 376.07L186.861 370.933L183.92 236.401L172.892 163.265L215.779 155.193L224.602 174.272C246.283 203.952 214.677 294.891 198.379 376.07Z" fill="#2F2E41"/>
<path d="M199.307 374.242L201.671 379.376C202.115 380.341 202.327 381.396 202.291 382.457C202.254 383.518 201.97 384.556 201.461 385.488C200.952 386.42 200.232 387.221 199.358 387.826C198.484 388.431 197.481 388.825 196.428 388.975L165.182 393.43C163.645 393.649 162.082 393.306 160.78 392.463C159.477 391.62 158.525 390.335 158.099 388.846C157.706 387.475 157.783 386.012 158.317 384.69C158.851 383.367 159.812 382.26 161.047 381.544L187.297 368.43L199.307 374.242Z" fill="#2F2E41"/>
<path d="M271.662 323.939L277.308 323.525C278.369 323.448 279.433 323.618 280.416 324.023C281.399 324.429 282.274 325.057 282.971 325.859C283.668 326.662 284.167 327.615 284.43 328.644C284.692 329.673 284.71 330.749 284.483 331.786L277.733 362.56C277.401 364.073 276.531 365.415 275.285 366.338C274.038 367.26 272.499 367.701 270.952 367.579C269.528 367.466 268.182 366.883 267.127 365.921C266.073 364.959 265.37 363.673 265.13 362.267L262.005 333.135L271.662 323.939Z" fill="#2F2E41"/>
<path d="M194.703 77.4092C205.531 77.4092 214.308 68.6482 214.308 57.841C214.308 47.0337 205.531 38.2727 194.703 38.2727C183.875 38.2727 175.097 47.0337 175.097 57.841C175.097 68.6482 183.875 77.4092 194.703 77.4092Z" fill="#9F616A"/>
<path d="M214.799 158.128L172.157 166.934L171.176 138.56C165.002 132.035 179.403 105.904 184.41 93.5531L190.782 91.5962L179.999 111.165L217.74 80.3445L225.092 82.3013L227.052 118.013L214.799 158.128Z" fill="#005FD8"/>
<path d="M217.739 175.251L208.492 186.923C207.571 188.086 206.409 189.038 205.087 189.714C203.765 190.39 202.313 190.775 200.829 190.841C199.345 190.908 197.864 190.656 196.486 190.101C195.108 189.546 193.866 188.703 192.844 187.627C191.713 186.438 190.882 184.997 190.419 183.424C189.955 181.85 189.874 180.19 190.18 178.579C190.486 176.968 191.172 175.453 192.18 174.158C193.189 172.864 194.491 171.827 195.98 171.134L204.996 166.934L237.345 144.92L229.503 122.905L246.167 118.013L256.951 153.236L217.739 175.251Z" fill="#9F616A"/>
<path d="M219.454 101.87H183.934C185.269 95.1684 188.847 89.089 198.632 84.73C205.767 71.119 208.816 58.7732 198.632 50.5241C187 47.8495 182.495 42.9926 183.934 36.3159L204.756 32.8914C221.88 48.1129 222.076 74.0959 219.454 101.87Z" fill="#2F2E41"/>
<path d="M250.089 120.459L227.542 125.841L219.7 80.8337L223.599 81.4418C227.187 82.0014 230.567 83.4872 233.402 85.7521C236.237 88.0169 238.431 90.9821 239.764 94.3536L250.089 120.459Z" fill="#005FD8"/>
</g>
<defs>
<clipPath id="clip0">
<rect width="455.774" height="396" fill="white"/>
</clipPath>
</defs>
</svg>
