<svg width="492" height="397" viewBox="0 0 492 397" fill="none" xmlns="http://www.w3.org/2000/svg">
<path d="M472.2 0.0024932H324.61C317.487 0.00214525 310.577 2.4191 305.014 6.85605C299.452 11.293 295.568 17.4859 294.001 24.4166L219.428 354.386C218.615 357.985 218.6 361.718 219.386 365.323C220.172 368.928 221.739 372.319 223.977 375.256C226.215 378.193 229.07 380.606 232.342 382.327C235.614 384.047 239.223 385.032 242.917 385.214L394.642 392.671C402.767 393.07 410.759 390.507 417.128 385.46C423.497 380.412 427.808 373.226 429.256 365.241L471.561 131.95L474.709 132.847L482.805 88.6295L479.566 87.8219L491.374 22.7015C491.88 19.9122 491.763 17.0459 491.031 14.3069C490.299 11.5679 488.971 9.0237 487.14 6.85569C485.31 4.68767 483.022 2.94925 480.441 1.76434C477.859 0.579429 475.047 -0.0227749 472.206 0.000658562L472.2 0.0024932Z" fill="#3F3D56"/>
<path d="M344.037 7.11566H326.811C321.863 7.11571 317.065 8.80365 313.211 11.8993C309.358 14.9949 306.682 19.312 305.627 24.134L234.044 351.411C233.632 353.295 233.632 355.246 234.045 357.13C234.458 359.015 235.274 360.788 236.437 362.328C237.6 363.869 239.082 365.142 240.783 366.058C242.484 366.975 244.364 367.515 246.293 367.64L397.525 377.529C401.792 377.807 406.012 376.51 409.38 373.883C412.749 371.256 415.029 367.483 415.787 363.286L476.869 25.0133C477.264 22.8238 477.173 20.5746 476.602 18.4241C476.03 16.2737 474.993 14.2746 473.563 12.5678C472.132 10.861 470.344 9.4881 468.324 8.54605C466.303 7.60399 464.1 7.11571 461.87 7.11566H445.528C443.946 7.11562 442.408 7.63576 441.153 8.59556C439.897 9.55536 438.994 10.9013 438.582 12.425C438.219 13.7706 437.421 14.9592 436.312 15.8066C435.203 16.6541 433.845 17.1131 432.448 17.1126H354.862C352.127 17.1125 349.493 16.0829 347.486 14.2296C345.48 12.3762 344.248 9.83564 344.037 7.11566Z" fill="white"/>
<path d="M427.639 235.91C427.933 235.92 428.221 235.824 428.45 235.64C428.679 235.456 428.835 235.196 428.888 234.908L462.332 50.7815C462.364 50.6065 462.357 50.4267 462.313 50.2544C462.269 50.082 462.188 49.9212 462.076 49.7829C461.965 49.6457 461.825 49.5346 461.666 49.4575C461.507 49.3804 461.333 49.3392 461.156 49.3369L308.999 47.544H308.985C308.709 47.5464 308.441 47.6422 308.227 47.8158C308.012 47.9895 307.863 48.2306 307.804 48.4998L268.378 226.65C268.339 226.824 268.339 227.004 268.377 227.178C268.414 227.352 268.489 227.516 268.596 227.658C268.702 227.799 268.838 227.916 268.994 227.999C269.15 228.082 269.323 228.129 269.5 228.138L427.639 235.91Z" fill="#0069F0" fill-opacity="0.1"/>
<path d="M295.597 247.815C295.459 247.815 295.325 247.862 295.216 247.948C295.108 248.033 295.032 248.153 295.001 248.288L293.576 254.38C293.555 254.466 293.554 254.555 293.572 254.642C293.59 254.728 293.626 254.81 293.679 254.881C293.731 254.952 293.798 255.011 293.876 255.054C293.953 255.097 294.039 255.123 294.128 255.129L374.623 260.836C374.772 260.846 374.92 260.801 375.039 260.71C375.157 260.619 375.239 260.489 375.269 260.342L376.639 253.294C376.656 253.209 376.654 253.121 376.633 253.036C376.613 252.951 376.575 252.872 376.521 252.803C376.468 252.734 376.4 252.677 376.323 252.637C376.246 252.596 376.161 252.572 376.074 252.567L295.635 247.816L295.597 247.815Z" fill="#E6E6E6"/>
<path d="M393.395 283.464C393.54 283.476 393.684 283.436 393.802 283.351C393.92 283.266 394.004 283.142 394.039 283L395.784 275.938C395.805 275.851 395.807 275.761 395.79 275.673C395.773 275.586 395.737 275.503 395.684 275.431C395.632 275.359 395.564 275.299 395.486 275.256C395.407 275.213 395.321 275.187 395.232 275.181L292.434 268.009C292.295 267.998 292.156 268.035 292.041 268.115C291.926 268.194 291.842 268.311 291.803 268.445L289.99 274.549C289.965 274.636 289.959 274.728 289.973 274.818C289.987 274.907 290.021 274.993 290.073 275.068C290.124 275.143 290.192 275.206 290.271 275.251C290.35 275.297 290.438 275.324 290.529 275.332L393.395 283.464Z" fill="#E6E6E6"/>
<path d="M387.874 306.104C388.019 306.116 388.164 306.075 388.282 305.99C388.4 305.905 388.484 305.781 388.519 305.64L390.263 298.577C390.285 298.491 390.287 298.4 390.27 298.313C390.252 298.225 390.216 298.143 390.164 298.071C390.111 297.999 390.043 297.939 389.965 297.896C389.887 297.852 389.8 297.827 389.711 297.82L286.914 290.648C286.774 290.637 286.635 290.675 286.52 290.754C286.405 290.834 286.321 290.951 286.283 291.085L284.47 297.188C284.444 297.275 284.438 297.367 284.452 297.457C284.467 297.547 284.501 297.633 284.552 297.708C284.604 297.783 284.672 297.845 284.751 297.891C284.83 297.937 284.918 297.964 285.009 297.971L387.874 306.104Z" fill="#E6E6E6"/>
<path d="M209.643 385.807C209.643 390.928 162.654 391.473 104.822 395.079C47.0402 398.681 0 390.928 0 385.807C0 380.686 47.2598 370.383 104.822 376.535C162.654 382.716 209.643 380.686 209.643 385.807Z" fill="#E6E6E6"/>
<path d="M340.53 344.807C340.676 344.822 340.823 344.783 340.943 344.699C341.063 344.614 341.148 344.488 341.182 344.345L344.871 329.629C344.892 329.543 344.895 329.453 344.878 329.366C344.862 329.279 344.826 329.196 344.775 329.124C344.723 329.052 344.656 328.992 344.579 328.948C344.502 328.904 344.416 328.878 344.327 328.87L281.2 323.574C281.052 323.564 280.906 323.606 280.787 323.693C280.668 323.781 280.584 323.907 280.549 324.051L277.403 338.175C277.384 338.259 277.384 338.347 277.402 338.432C277.419 338.517 277.455 338.597 277.506 338.668C277.557 338.738 277.623 338.796 277.699 338.839C277.774 338.882 277.858 338.909 277.945 338.917L340.53 344.807Z" fill="#0069F0"/>
<path d="M85.6344 284.838C86.4293 284.295 87.0951 283.584 87.5848 282.756C88.0745 281.928 88.3763 281.003 88.4688 280.047C88.5613 279.09 88.4424 278.124 88.1203 277.218C87.7983 276.312 87.2809 275.488 86.6048 274.803L89.1608 217.887L76.1477 219.344L76.904 275.016C75.8249 276.225 75.2278 277.786 75.2261 279.405C75.2243 281.023 75.8181 282.586 76.8946 283.797C77.9712 285.007 79.4558 285.782 81.0669 285.974C82.6779 286.165 84.3034 285.76 85.635 284.836L85.6344 284.838Z" fill="#A0616A"/>
<path d="M109.375 381.185L116.782 382.484L124.102 354.604L114.397 352.687L109.375 381.185Z" fill="#A0616A"/>
<path d="M129.859 391.849L106.581 387.766L108.162 378.795L122.446 381.3C124.831 381.719 126.952 383.065 128.342 385.043C129.732 387.022 130.278 389.47 129.858 391.849L129.859 391.849Z" fill="#2F2E41"/>
<path d="M89.0452 384.883H96.5653L100.143 355.948H89.0439L89.0452 384.883Z" fill="#A0616A"/>
<path d="M111.066 391.849L87.4319 391.851L87.4314 382.742L101.934 382.741C104.356 382.741 106.679 383.7 108.391 385.408C110.104 387.117 111.066 389.434 111.066 391.849Z" fill="#2F2E41"/>
<path d="M120.42 374.511C120.302 374.511 120.185 374.505 120.069 374.491L111.218 373.764C110.815 373.717 110.426 373.588 110.074 373.387C109.722 373.185 109.415 372.914 109.172 372.59C108.929 372.266 108.754 371.896 108.658 371.503C108.562 371.109 108.548 370.701 108.615 370.302L117.402 327.053L111.881 298.004C111.836 297.768 111.707 297.557 111.518 297.408C111.329 297.259 111.092 297.184 110.851 297.196C110.611 297.208 110.383 297.306 110.209 297.473C110.036 297.639 109.928 297.863 109.907 298.102L101.773 371.912C101.697 372.69 101.321 373.407 100.725 373.914C100.129 374.42 99.3585 374.676 98.5769 374.627L90.2379 374.317C89.5072 374.266 88.8207 373.949 88.3081 373.427C87.7955 372.905 87.4922 372.214 87.4556 371.484L88.1217 282.291L131.354 276.9L134.374 323.428L134.362 323.478L123.327 372.23C123.168 372.88 122.795 373.457 122.268 373.871C121.741 374.285 121.09 374.51 120.42 374.511Z" fill="#2F2E41"/>
<path d="M102.379 181.007C110.7 181.007 117.445 174.278 117.445 165.978C117.445 157.678 110.7 150.95 102.379 150.95C94.059 150.95 87.314 157.678 87.314 165.978C87.314 174.278 94.059 181.007 102.379 181.007Z" fill="#A0616A"/>
<path d="M116.574 289.078C114.218 289.092 111.907 288.433 109.914 287.178C102.615 282.628 94.3274 284.436 90.0362 285.919C89.6103 286.068 89.1562 286.119 88.7078 286.068C88.2595 286.017 87.8285 285.865 87.4471 285.625C87.0701 285.389 86.7515 285.071 86.5153 284.694C86.279 284.318 86.1312 283.893 86.0829 283.451L78.28 213.926C76.9722 202.277 84.0066 191.325 95.0059 187.884C95.4193 187.755 95.8395 187.633 96.2664 187.517C99.6893 186.592 103.274 186.425 106.768 187.03C110.262 187.635 113.581 188.997 116.491 191.019C119.455 193.063 121.934 195.731 123.754 198.834C125.573 201.937 126.688 205.4 127.021 208.98L133.591 278.971C133.636 279.424 133.575 279.882 133.412 280.307C133.25 280.733 132.99 281.115 132.654 281.423C130.351 283.548 123.666 289.078 116.574 289.078Z" fill="#0069F0"/>
<path d="M92.8109 228.835L75.2065 226.904C74.7056 226.849 74.2224 226.687 73.7899 226.429C73.3573 226.171 72.9857 225.823 72.7001 225.409C72.4146 224.995 72.2219 224.524 72.1353 224.029C72.0486 223.533 72.0699 223.025 72.1979 222.539L76.6793 205.501C76.8113 204.223 77.1957 202.985 77.8104 201.857C78.425 200.729 79.2576 199.734 80.2601 198.929C81.2627 198.124 82.4152 197.525 83.6511 197.167C84.8871 196.809 86.1819 196.698 87.4608 196.842C88.7396 196.986 89.9772 197.382 91.102 198.006C92.2268 198.63 93.2164 199.47 94.0137 200.478C94.811 201.486 95.4002 202.641 95.7472 203.877C96.0942 205.114 96.1922 206.406 96.0354 207.681L96.701 225.226C96.72 225.729 96.6303 226.23 96.4379 226.694C96.2454 227.159 95.9548 227.577 95.5859 227.92C95.2169 228.262 94.7783 228.522 94.2999 228.68C93.8214 228.838 93.3144 228.891 92.8133 228.837L92.8109 228.835Z" fill="#0069F0"/>
<path d="M133.519 282.401C134.243 281.766 134.817 280.98 135.203 280.1C135.589 279.219 135.777 278.265 135.753 277.305C135.729 276.344 135.495 275.4 135.066 274.54C134.637 273.679 134.024 272.923 133.27 272.324L128.932 215.516L116.18 218.38L123.664 273.702C122.738 275.032 122.334 276.654 122.528 278.261C122.722 279.867 123.5 281.348 124.715 282.42C125.93 283.493 127.497 284.083 129.12 284.08C130.742 284.076 132.307 283.479 133.517 282.401H133.519Z" fill="#A0616A"/>
<path d="M111.292 225.264C110.923 224.922 110.633 224.504 110.44 224.04C110.248 223.575 110.158 223.074 110.177 222.572L110.843 205.026C110.699 203.758 110.808 202.475 111.161 201.249C111.515 200.023 112.108 198.878 112.905 197.88C113.702 196.883 114.688 196.051 115.808 195.434C116.927 194.817 118.157 194.425 119.428 194.282C120.699 194.139 121.986 194.247 123.215 194.6C124.444 194.953 125.592 195.544 126.592 196.339C127.592 197.134 128.425 198.118 129.044 199.235C129.663 200.351 130.055 201.578 130.199 202.846L134.68 219.885C134.808 220.371 134.83 220.879 134.743 221.374C134.656 221.87 134.464 222.34 134.178 222.755C133.893 223.169 133.521 223.517 133.088 223.775C132.656 224.033 132.173 224.195 131.672 224.25L114.067 226.181C113.566 226.236 113.059 226.183 112.581 226.024C112.102 225.866 111.664 225.606 111.295 225.263L111.292 225.264Z" fill="#0069F0"/>
<path d="M101.483 181.573C101.214 181.573 100.947 181.542 100.685 181.48L100.609 181.462C87.3632 179.443 84.4355 171.787 83.7933 168.591C83.1284 165.282 83.8853 162.088 85.5966 160.847C84.6637 157.91 84.8133 155.303 86.0426 153.099C88.1894 149.257 92.8395 147.96 93.4646 147.798C97.1805 145.064 101.626 146.889 102.435 147.259C109.624 144.607 112.372 146.814 112.868 147.307C116.081 147.883 118.039 149.121 118.69 150.988C119.911 154.495 116.049 158.857 115.884 159.041L115.798 159.137L110.044 159.41C109.499 159.436 108.964 159.577 108.476 159.822C107.988 160.067 107.557 160.412 107.211 160.834C106.865 161.256 106.612 161.746 106.468 162.272C106.324 162.798 106.293 163.349 106.376 163.888C106.531 164.583 106.728 165.268 106.965 165.94C107.946 169.004 108.682 171.621 107.734 172.616C107.519 172.808 107.254 172.936 106.969 172.985C106.684 173.035 106.391 173.003 106.124 172.894C105.224 172.654 104.614 172.704 104.309 173.044C103.837 173.569 103.981 174.901 104.715 176.792C104.946 177.39 105.008 178.039 104.895 178.67C104.782 179.3 104.498 179.888 104.074 180.369C103.755 180.745 103.358 181.047 102.91 181.255C102.463 181.462 101.975 181.571 101.482 181.573H101.483Z" fill="#2F2E41"/>
</svg>
