<svg width="70" height="70" viewBox="0 0 70 70" fill="none" xmlns="http://www.w3.org/2000/svg">
<path d="M66.3158 58.3333V62.2222C66.3158 66.5 63 70 58.9474 70H7.36842C3.27895 70 0 66.5 0 62.2222V7.77778C0 3.5 3.27895 0 7.36842 0H58.9474C63 0 66.3158 3.5 66.3158 7.77778V11.6667H33.1579C29.0684 11.6667 25.7895 15.1667 25.7895 19.4444V50.5556C25.7895 54.8333 29.0684 58.3333 33.1579 58.3333H66.3158ZM33.1579 50.5556H70V19.4444H33.1579V50.5556ZM47.8947 40.8333C44.8368 40.8333 42.3684 38.2278 42.3684 35C42.3684 31.7722 44.8368 29.1667 47.8947 29.1667C50.9526 29.1667 53.4211 31.7722 53.4211 35C53.4211 38.2278 50.9526 40.8333 47.8947 40.8333Z" fill="#F7B222"/>
</svg>
